<mxfile host="app.diagrams.net" modified="2021-10-24T22:05:18.554Z" agent="5.0 (Windows)" etag="gWVa12syT36MIGMlieWJ" version="15.5.9" type="github">
  <diagram id="jWnFje2PyunNuaLztP85" name="Page-1">
    <mxGraphModel dx="1673" dy="929" grid="1" gridSize="10" guides="1" tooltips="1" connect="1" arrows="1" fold="1" page="1" pageScale="1" pageWidth="1600" pageHeight="900" math="0" shadow="0">
      <root>
        <mxCell id="0" />
        <mxCell id="1" parent="0" />
        <mxCell id="aVimhcgM1RQ7JQpBMb3x-2" value="" style="shape=image;verticalLabelPosition=bottom;labelBackgroundColor=#ffffff;verticalAlign=top;aspect=fixed;imageAspect=0;image=data:image/png,iVBORw0KGgoAAAANSUhEUgAAAgUAAAFTCAIAAAAmwegtAAAAAXNSR0IArs4c6QAAAARnQU1BAACxjwv8YQUAAAAJcEhZcwAACxIAAAsSAdLdfvwAAAAhdEVYdENyZWF0aW9uIFRpbWUAMjAyMToxMDoyNCAxODowMzoyOaHleOgAAOnLSURBVHhe7P0HfBz1nf+Pby/SqnfJkmXLvTeaHcBADLEpDpAESAJJIOSSXCC5/yXc93IppF8gVyD3S+4uhUBylDRq6AQbYlNs494tucjqZSVt7//XZz4fjUazs7Mzs7NFRk9/HvLn89nPzk59vz7vTxtjIpEwTDPNNNNM877HxP6fZpppppnm/c20HkwzzTTTTEOY1oNppplmmmkI03owzTTTTDMNQUt/8ivv/PWd/TsOnTzyzoEdLGuaaaaZZhoFlBaXLJy1YNGsBRcsPW/DBZez3MJAhR6c7e9+8LGfvfLOa2M+j62s1F5eaikuNlnM7ONppplmmmnSEQuGIj5/eGQs4vPNqG268YrNn772VogE+zivKNWDBx//2UPP/NYXCxc3NjjrakQysLJsiMU4eoJFvSEnS0wzzTQFT7090ODwswTH7tEqFpsmO0AYAv0Dvq5el91535d/UAi+Qno9gDfw8X/5zOGTR0pmznC1zGC53A10cVXvxtrOOcVjLEuAN2rdPVb1t6H6F/onvqIIf8QYiLC4wZCwmg2ldpbgicSNvR5DIMqSwGJK1LsMRVaWTMI4NOleT1QVsVgyYyFjJMbiepUUHZRMSRzaWJDFUbLUYbCm7OMRHpR8SeGuJpxWmRMl3NU0JQW7mqakYFfTluR3IH3J8R3QsyTgzlWa83mucHFl7weq+vDXZZm4P3lO+EqhCi/0NyPCsqbRm3g05j1z1tfVc+PlH/7GZ/8pv45CGj2ADHz+h1/uGRusWDTfWsysGJTgMy3HoAQ0KQ+E4Q89sx46M4+lUwOTYTw6ZBjyO+wOlmUwRGPRqDGemF2ZmFVBn0/jsSFjx7DNYCkqKqZlQDQa8Qf88QpHfEX9pAcehuCkG+UtCbg0FpoXj8fDkXCiuSwxr2qiMC3ZOWoJJ9KUpPvQOWoKxmxWG81JWbJz1NjhNnkj4pL1rsT8aqHUEYvZ4Tb2elHSZGKWKBgKGqqKEvOrJkkIDBZKdo6KS5basU2iizzjh2+KGfgdwK/HHWacz8TsCppDGD98mGP+/LOSOKjxk0+hB4Xd4HcgZcmkgyIlzYZEfYnoRBEZwFnt9fC7mrYk9pnuKikZj5MDn10x6UThoI4N4tf5g5IrOX74FmC2kPMJ/UguKTh8lqbgMjWX4gywJAd/+CxNwWXCNieXFB4UywEo2VAiOqWkJHaVOyiWAyRLyrKx9iye4nr7pHpSKvaMVj3UOW/aY8gewSH36LH2+c1zHv3BQ3mUBDk9gGdw7Vc+0ucbqVy2iG8gwj30meZjNK6c3lDR1w+vEdcyAhFjNGaIcg9Al8d8eqy0pKzEVcrbOAqezNFRd9AWTyyoMh4ZssFCVtXw1o0Hz/nomHss6E0srWXmA0/O/v4ii6OivArPOFeKEY1GUdgb9hNbU+EgJY8PO8KmsrIKoRoBlPR4R8lm2yoM1UXYW+PBAexDRUVVckmf3zsy6sZ+spLHhi1jkbLSClexwEZzu+rxjpGScyoN9ZyqnR41d3mTDx8loXPukaFYXZEBOwB6fcYTw+VlFcVFLuFB0ZI4qGiFjeyqxcQfPg5KdLpQ0uMZJad0biU5Vyh5ZMgRM5eUlBU5J9k+dvLNMXJQKJn6oGBqUdIfDSYWcjqHku1u01AQJx/bFB4USuLXycmnpxSMX33RQdFTOuYZjc0sNTRxD8mgH5t12Yqwq8KDmijZ5DLM5Eyt8pLQ18ODDpNNdPgTJXHyURKnNBTFibIE4jh84UFNnPxSa2JeJSkpOFG4T/iDmijpNLGTD7o8xpMjpSWlxcUlwl1llykeZncpSHFQKBkI+MgpXVwrVpokUJ/7+tw9Kya38SrhD92zoAqo4bH0NLoS8fmH9x2CJDz3n39kWTlHTg+u+cpHjvWcrF65jIoBPMofLtip4Tbi+dHxFaz5KBozjgQMMVYVMnZ5TT2+utoGkdkSMjQ84PV58RDWVNexLClQZmh0KLGkGhs3Hh6uKqsSmS0hpPDwQGJuhbFj1OUoqqqsYR8kAbM4MNgXm+EyDgZcRrtMSRi7vv6eWGupsdeHkrCGInnjYSWxTX/ENhrDcYlEiwdGBCXDZeZEkdV81itzolhJpyHRUpr28MkpDUIRK4zH3BUlFbBH7IMkxjxjbo+blDw9Jn9Q7JQurEJJW8SIXU1Vkp1SnCgc/lBEUuMpOFFDQwPhKis5/FNjOFEiJeaBBcc2yYkqtSstWVNkPDyEC5rqRLFTak2Q++TAoPx9Qk5pIkRKHnfLnyho/Jjfm1hYifsEV1/m8HFKSYUAJyoUk39M2CldJicJF1f2/vPcvZKtQ0pAle7rh88rqN7B4ki00eMvD0YQCZtNow7bqbJin1X6USpwqCR8auMt3/jsP7Gs3JJSDx58/GcPPPaz6lXLaDMRbqAHl7wl2VWgCiIJPY3GIZ+B/11/xHxoWF4MKLBKeGhTPWA85EkzBg3RRLnVVVZaznJTQO0XNivzkFPwsMEupBUkQEvicBrqm1hWCqgkINLU0Cx/XLBKPX1d+Jv2RDH7FQnDGMmYeAqxXz4vvI20J2p0bAQOjZLDp6cUOykjBhRyoob6TAlDQ11TKi2kwHzTw8cpTXv4KIny+PVUYkDhS8qIAYWd0nhUXgwo9JQqOVFUEixGEw5f/kSh+j/gHsCJSnv1cd17ervil7YSFy2JjbVn/3nuHpbQCvyDuw9cVAg9CtZYfPHg6NxhCaM0UOTY0Vg1FVUh0Dcwcqz90R88dMGS81hWDpHWg7P93dd+5cZEdRnfgfzrFW9kLgaUb76z6I2uapbAHhx3l8edae2RcvD0dvV04gGDkWVZsiiUGYDHEiZGSUlYBGErgQwoiWLylouCRx3GC4aGpVODkj6fB3rA0qnBufJ4xxSefNivstIKJYcP8XA6i+QtFwUlrVabkoPCycfeyhtuCg4/GAym1UKg/EThzOPw05p4gJ1ESRnPQAhkJrmJUhKcKLPZouTwiXJbQvG14pt/ZdnQA0veYonMgBhAEvLbcAQxWH+mrzwYZukkImbTlpa6EUf6m7DQcB86Vm12bv3FSyydQ6T14Pu//PEjr/yebym6a9bBjzaepB9lzo4j1n9vX9YdYr3Bxnd7YLh50zl37tw5c+fQOHjh+RdYLImNmzayGG7Q4yeOHz/OEpzlslrt/MODbWKrNA7efued4aFhlkhCVPj5FDtQWVV54QUXsIRO2wTKN3vBhRdUVVbS+NDw8Dtvv0PjkmwSnKvjk8+VCOFmgV6H73Q6A4EATcr8OorNmDExIO3s2bP8t0TMmNEEyaHxQMB/9mwXjUuCHWAxcq7IP5ZIQuFmcfj4xxKyRwSU76poszKHL3NEEKTOrtPxK2YLO+Hh3/9+9V81NxMl8+Zw/b8cXsMSQsIxY0Qw8C9rXHCmvzyU5nAiJuPW1oaY2cjSU4So2dC/Y/d9X/7BjZdvZlm5QloPVn78IkNdVXFTPYnrV62gvHXQ2hMqfuDUMpLwhO0nPMJ2lQ9txL8PsYTB8OUvf4XFknjgwf9kMYPhxRdefOGFF1kiiY3Y4saJbf70wf86ceIESyQhKvzlu6V3YM6cOXfd/SWW0GmbQPlm77rrS7xwQg5/+tP/onFJHnjwARYj5wqkPFfcZidszZfv/jKLTYbbz7tYguznT9Md/oQgpdomUL7Zu+66a/Lh/5TGJVFx+HffhX2gcfw0doDGRSg/IoBtzh3f5vHU2wQbwaaJ++RBHP5x6cN/8KcTR/TC8+SYWIIDbkdgWZVwpNkPFu68uLKXJXRiojtQgNEXMngnj7zKAs0j3mb3xKitefXldWVFpU5bIBw9O+w9OTAWGe+b7Hc5T9Sk6WAvNBJ1pSPH2luLqnLfsSzh0r7yzl/HfB5nHWsn1TCaKC0Ndt/qsgEaF7nViXgiFo/zgeVKEYvF+RCPS/eCUPCpsLBcURROTCrMcpPARoTFdNkmUL5ZfDhRMs3vY5sTYGdYrhTcZidguUlw+zmB/M9zhz8By00BK8TBsqTAJZ84TbL3CZgoiSB7+NxtxxdOuVlsRFAszRFhO+x4ZLcJ4pO2GidnOQXCYvgWyx3H4XAKh8OiSqe7GIDPtOhvGRRS65lwm5a3VM+tL4cYIO60WRC/cA6pyFJqvQFLuqejAHFUVR4+eeRsfzdL5woJPXhn/w5bWSltKcKdlH5AkaXM2PA50+I/02Cc84CxdC37KDUfrJKevqDcdrASHGkectE25QtPFg+Wm4zIxOuyTaB4s5Ptoew2J5sPKC7LlUK4WQSWm4yawycaLyycGnirwpKpBjsAHHR0PCDOclPAl0SQP3yFm8VG+GIILDcFyneVbDYW44PM4U8qls7efURJY2/xEmPr9yae4obP4blmH6Wg3u7fWHuWJXJIcThqjzLLUOVyzKgU96lAG2bVTPQelabuYyhYHFUVJosl9wvESbQXffxfPnPI00N7kv957l75eWfGyo3GtgcMlqS+u7Ht8aOfMURHWVLAWwdZs+aDp5Z1D1qdHWQIHc0Bs0FbG0sYDK++8gqLJfHBDRtYzGDoaG/v6OhgiSRE29y1c6fb7WaJJBTuQEVFxeo1E+2numwTKN/s6jWrKypYQ7/bPbxr5y4al2TSuQLt7SyRBH4d+8ASeh1+WxtOAEvodPjXXnttQ2Mjjfd0dz/77LM0Lsnn/u7vWAzbBDt3skQSCjeLnVy9ejVLGAz/+z//w2JSKN9V0Wafe/bZ7m7pGuLnPi84op3iIxodG3HXm8msBW62we/XvEbzpUF9bsZXjQ13siRPdCxx6puJgSdYUooTvtLb91zCEhwy7UU2k6XSocOopOJwZNaQh8YhBsl6AMYC4UNdrE+l3+XsL5lKy+ckKkhv01jH6esu2JBJF4LNZquqSj9WQoiEHrRtXlI+r422Fz1/wUsyfVDGmpvgDbBEMr6D8UM3JEsCrwfb3A3PtjeK9GCaaabJEKEepB1jalr2mqF4MUskkTjxZXlJ+NjOK4TTEWT0YEV124VNi+2O9IOp8ovJaDQg5IUEnL003l4yRg6WEOAeHr7js59lCWVI60HVskW2stI5xWO/XvEGy03G3kzupGTPQEBi+MXE0U+zxDi8HpBe5f0LpvVgmmn0RagH8i6+sfmrcA5YIgWJgzckxrazRBKiXmV5Pdi8+vKWmTNZuiAxm81WS97G0YbD4eTeIHmgXfADJPXglZdfVqsHckOk58pOOOBaGNN4f8bKD0E2WCKJBruPxaaZZprsMLdYos2WYSkz1n+OxWXAk56a+smrok5pTCZTHsUgEo2oFQNgtVolxUAbcnogf6WJrVeAsfYmFpPCacrFUOVppnnfIjONlIz7SFelA/JPul7TVPOOyWhSMoMyS7ChLiqBeimZ9qicDLaVuuI/iaIlLCJFg7LlFaeZZhr9Sd1tIEJmxGCJWbc5bnnEaDCios0SOScej8M5YAnFmDlYQif01JZppplmmimHTBN8DkgkEpGIajGAN5ONpq0M9CCk6P0HBv8BFpGiJ5R+4ZppppkmK/gOskg6Ev6UJT2xvFWr9cJiseRLDADEICEz81AKKmAsoStyetAblDPWieGUk/6FyBcLxKfksrTTTDNVkFmIlIwaiqZv/SePsNREIkohLHSaCahl697qopxwRPWAIpAlMQByenBc9konev437c1E7iRfSv+gZ3xJu2mmmSZLyLng0dFE7/+yuAx40lMjX2sscLLRBK8cMqAo3eT2ZCBg2fNm5PQAyi+3pG2oM3Hqmywuie9gol1una8O/9SuWUwzTeHzt6GJxXySSXT+RL7VKHH2JzKTD8DUfYmm2ZTPqQbaBhRZzJasClia/oM3h2VvpoEnEmRRCikvYWy75ORkIbtG07xaZJpppsmQtPYaz6l0oy5Zr+JbRDBSgypjQb0rTTmkP3aqDSgymUxKXqmSCWn04MWk9WxFJIZfiO8+D/cNBIAIA3wCTiTiB9OIgTti51+BMM0002QJ2Gv5Wh1pNTr6aTIJeeAJ4ivgKR7bnuj5RXzfFaRNWJY/dE8sS6WQQwcPvrn1DYS3tsm5HVkle/2xStA8oCgH0yPk1qugyQeXvJXJO5OToetV/KF3DvEPPGHRehXkzTHKXh2j/B0vyl8zAoRvLwGpNqv8zS1AtAPnwAth3ueHr/yIgKpd1QXhehVA91eYUHpDRR/beTlLjJN2vYqRkdGysor6hoZ3395+8aWT1sLLDfkdXQr0XZRCBg3rVaTXg2y/D0ekB8rfNKL8JSeibcq/vCXPL4SZO+euuwSb/WnKN6Iof8sKkH99ihCy2XE9hsqm2iz2827B4cu8uQWIXvNy911yh69wswr3k6L74Ss/IqB8V0Wb1fw+HJEegEJ4H06B6AFq2frO6VUFPINYXHW3gbZ91nn9Isru0ao/dM9iCZ34Q8/E4s8icvH+A1m4dxVMwHKlmFinP+02lb8+JTF5s6kPS/lbVsDEYvlR8gIEliuF8P0HcoMfEpPeqSA/fhq/OKmwDIo3q3Q/OfiSpLAeh6/iiNTsqnizqQ9fWCy5SpfMj44v1/d1x3tGq5LFoPDRfYEHVUSjePzS2IpkcrnPin7mpycX6zjK+A+9c2R6DhKK350iLCb/ShDRNuWfHzyzrCQiqZ9ebIR/yQmC/DaxA8LCLFcK5ZvFvvHFZPaTwpdEkD9XOHBeOxBnuUmQ/ZyQGLk3twBy+ILCLFcK5ZtVJ4cC5A9/1qxZrBw2K3v1WSEOlpsCTg8Y8nog2qzM4bMSBAmFww+y2DgQg385IvW6Y030hoq+rt/WckZ+R5fiUkVjqpdr07zPGroogPnee+9l0XEefPxnRXU1ZoedpTleG2y8oGKg0ibtCSoHrsbT7YLVrS3GWOdoaUkZ3zSGJ2B4eLh9HJm33OBpYYVAR4fwxSkDg31GwfgB8Tbb24PBIP0oGRTu6urCxoeHhhF27ZJ+z4zT6ayurqZlEA4dPOjxsHd0JFNeUWG32/nCqbYJlG+2oaEhHI7QYt1dXceOyb28EGaO3ybOVU+Kt6yAhsaGcCSC0wW6u7uOHZXeLNnPmmpaDKQ9fIfDzooOy726B5utEWz2oMzhNzbgjqfFulLvJ2XW7Nm0JMANIHP4wpJdXd3Hjh5lH0yGOyIHK0eOKOULdkBDQ+PErqbeJhBtVubwsZ9+v9/lctGnQPSYjIy4Y3PKhe/TBzDiCBdXZdpqBGn56qELsCmWnowxEjOEpQWyvqhyQeOsYDDkcDhdJSVdZztntuZu7WsyujR/A4pwmXLZh0wdkTOnT69atYplKSN9/wGPyxJ5cMlbmSxnSBscjX2TtmA8MlRlKXMVS7zkSBvhSLint8thdyh8rQLKKzzpOMsKx3upKglnUIk/SKuWCkuiJpLHg8IOKNlPoPzw847yg1KO8lOqHGyzq6cz/qG5BqvE3m6sPXvXrIMyL7mS54Sv9IfHV8i0FhRm/wExrPkbUARCoZCGRSlQiWQJNcARoYNZ39z6hv79BzyoF9y+55KHOuextBpQm/jygYskGxwTTSXukSF5P5ri9Xlhu1kiNUNDA7EaZzAa8gfSL54aDAUhHmOe9CJHZKZPUUk8kCg5OjbC0qnBUfcN9MCbYWlZhoYH+vp7WEKW0TE3SmI3WDo1OEWwHUrOKsqgpJJTioNCSSUnih4+joulZcFZUnj4uJ0Un6gRYjoV3Hs4HJRUckpxok53nlRySvG7Cu8ogCNSckcBHH6iuUxSDACewbsPXKSt+RfOvebv5hGjMZ+jS0E4HFYrBkDbPhNHRP3MBh7V9Z2Hzsz72M4r0oxoFgAVgYTcvufilPNiSmzxSjtud/nHEmJADaLMk4YtwGqELPHojOLIzBKUl38s8SnKQzzwCEEYWK4U2DJkBvuJktgTlisF3YdoiWXEO6KkZKzEFDJH09pEFPDHQ2FrIm1J/Kgn4DWU27Bx+VOKwydbq3CkLQk7SCxshS3tKcV2yKUsteBEyZcEKBMtMvnDQfkTBWA0/eFAwJT+RGFTY36PwpK4RjEb2Q2WlQIcCCQ2WmROe6LwKe6ThM1M7pZ0JXGisE1sOe2JwrEEzbER72jaE4UC/mgwsbiWpaWAQUfFDs56qjafZPaMVqE+99OTi/XtlM4BZKRm/t5qAMiiFOpXKNK2KAXEANrDEppQ2n8gxBuz/nWw8YV+8v4DuymeqlMBmvHo2Tn/1rH0XXdtOD7RJUI8ShEVjngg7B8asdnsye4zjBGeBzzkicVVCbvZ30MGj1vMFpHzjidhcLg/7IhH5pQljMaEw2x1mnxdw0ajSdLtIuWH+iN1jmhjscFuDnQPkXqEVWKQLyrFqMZGK6yJ2eUGuyXQN2JMkBFgySUhKv2DvcFSc3RWSbzUFu52J2Ixu80hWRK/joc83lZqqrSHBn0RfxAlk1sk6OH7YsHE3ApDfXFkwBvy+hx2Z3JJmJiR0WFYDfuSSmNDccwf9g1Kn1IAC4vNxlpLDc0liUDEOzBstdokG1hx+DioRKUNBxWzmoI9KU8pPahQqck8tyRuM3vPDppMZsmSOCjYVr8xkphfiasfODuc6kThoIbdg2P+sfDcsni5LdbviUUiOPzkkoCMs/QMk5JVjuiANxIMOh1FkiVx+NisaVaJYUZxaCDlyQf0RIWbi1HJiAciIbfHbndIdvHxVz+CHQhEAsOjqU4+Dr9/oDdoT6BkwiZ3Sunhe4P+xLwKQ7E10D2c6pQCcvg+d3xti6jnQBKoAur7+Gszx6usIZtJwmZBMOBP/Fv7sv/rmqNQPAqt/wDPqe6tfMqJklERaYYbJAPjpq0VMTJ5qdTs9h+kwmWJiN6s6YlaZZxKY78HQsYSQgYDxi6PJWYschbhpqd54TDX7FPtTMwsNZi56+qPGLu8BndQeKXxKCacllit015nD0UNMW7zeCjCIxFjt9/ij2GblvG1SqLRCMpHTInoTFfcxTKNgait22/yRoUl4/EYfj1qTiRaSmG2aCbZgTNjopLA7/eF4xFDU1G8dnwGfyhuOOkR/TqgJbG30foiq9lgNmL/E/ZuP84ASsKImDm1i0Qg9kmHH4uTw+/10ZIw4igZCgVxUCgZd1kSs8odxeZ4wmAyGmLdvmin12ayFBUV05KwRJEI2SY5KMhbyXjVyR3EQdniZr4kLBF2gOyqKWZqKY6U2qKcxTB5I5bTXmucXCb7uCxhB4LBQDAawrFbmoticUM0YbKE4saOUUs4ISxJDikUIAdVX5xocrGDCsWMJ0foKUVJ+jBgV2lJVKKjM0tgN0nJWMJ62mPxTCqJXaUlww4jrDbuBFrSctZnHQmjpNNZTH8dBAI+lIRbYJztQkncLQmU7PGbBwKuYhe/TYCD8vo8OFHRFlds/D6x9PrN/YEimxPb5EtiV30+Dw4/2lAEd5NmYoPYrMNiLy4uEZbErqIuEm8oitQzC0tPqT1hRklhKwF2lZTENUVVgL/5j7vxjJS4ykQlyYlyWeLL6w2l0mohT7090DD5fYjH5ZcvS0FB9R+glq1tcI4u4LZM6/klgxsVlo0l1ABHRKQ9GvoPdNADtRjHAoZA6hYuT9g4NnES4RAQm4W/yXgmiuGhjXMNptAAoR7QOGy91RcxxvDgk3wQK7MxqyEA1WM8b4axMEqyLOxAqW3CaAqZXBKyHHeYrFU2EqNZHMGowRiOm0ZDVu48U5OasJmxA0QHcMtSPYhyvx6KkcMnf8kTZSq1w2uMljtiKCQCFtcd4kviULFNoljciXJYDFQP8JfU1WDr/VFWEmYFhYssE/I2Dm7f+HDAFIgaPezqJEqshiILDgq/JqrzmUbDk0o6LdhmotxmtxtROBI3WsctILug9NeBzZzAhRnfVR4yutQXNo+G+W0C7IDklcIpNQ8HNZZ0WkxlVgvcnckHlVzS7DAbK2y8EE4QS6CkCSW5q4/zbLQYo8XWaKWDXlMK8u24KwaC8TFWkmaaKmyxMnvYwvSJQgqPhGKjkQSuKXYGxbAlpyVa5TS5kuw7Lqg7OGnvcVZrigy1xYnSPK8mVDh6oLmWrQu06UZtt4Hmfm84IoAlxpkaeoBTZRzwSrsIWsG5iHMblNQDwJtdGYhF1kosFsUjGedMTPKBwVbDDmNnkse+T9KDJGAzYTdgIsQmKTUoj28FY6RDkemBAqAFsMgsMQ4sksNKLpT8eaMQi2YhhcMxo9rnED+NHWCJLIPzg8shEoNkMiyGU4ezAXDR+WvOnyLR+aT5vOjS70ISImRAk+LqrdGYqHGRr+WVAtEDuAV5XLsUhMKhZNMqj+aFNPgBRSKmiB6AaMw4EiBPgE7kUQ9wAuPxGMQguRJNkREDIK8HgEqCCByU5LFQMYB+4LfgJaQ1ZxQcQoSrXPBWDBuXtGipmCpigGuBU4RzIq+vCsUAlxVnW60YiM6nPmJgMSfKHPjLkgJuX3sdi2WN3rGh5w9so/FC0IO8jy6FZ6ChD1lbVwce3lSOyNTRA0ooaowqMFcKCEeiMMuIFNtIWxS1vMI4zC4ecplmKmBXfw/FyczniIzlxbMNcx+ACZC4XgReD2R+ndwjkysN0tIC82Qhm8KnTq7JCL+bFhwCX7lwWsnv0L3FQcFUyew5D4qhMLF0RAysyus3+Ap+OvkOzBI4ObgHcH7k6yFEUy2G1N2iDHrUktddeBopOCe4IkiKrgh/6vh8+t1wXMWs1ARkAHucgodu+/aDrz/OEpG4sddj7BzbvWc3yzEYVq5YmaguSsyqkBiiivKdo8Zer7h8vUs4pBWSc9cT99N43vUg72KQ3I6vBM1dHTIzG6aaHuhHePxNQyU2g3/8gRfG8ZDjgYzEpavVFIdNXUccTl0sFqZGIXmzeKrhoMAQ+Mc1SRJUMFHNRBm1vy4CuuK0JAJRI05DkY0syuAPG9MaWlK5iKByMbG3xI/hpAWBP3sywKLhi8SixYw2i7rnED9Nvbpso/BaABw1Lqj8fQLoUUted9xm9ILyP0R/HSBT+OP8qaP5E5cgBsugzseS4ac3fY0Z67GQaUeXI0Z6rR12B3Xj8NQEQ0GPZzQYDyeW1CYEvUpGd9B4oN9hspWUlKE8rbpOlDfH4uc10b7riZ/At/KqB5qbXPQiVdONPJpbt+QdkSmpB3NsNSWmjEwhiMVj9Djg5uNhTo4DSAKeQDzDqSxCzGQ4ER4IJ2QtwTj4RUM8msp2KDdAuuiBXmKAk8PXEXFQODR5ciwGuKDaHnRcet3FAPsusu8AX8dvCX+InlsgKpwbMQDMWEMMtp+pKK4oLZF+rv0BPx1/nKgmPdJEDI67qyprUi0c4PV5hzxDZGxrqb1w9MBus+dRDCCWWgYUaXVo0joiOdWDSnPxTGsFSwgIJWKHQopmh4KNrkVt5Y3V1RJT1SD1GlrTUkHMdzq8Xm/PQP/Tnn3euPQNzaOXGIDM9QBKAD1QKwaAdHkJ9jYSIwZXiQxQcikG/E6mPZ+S4KdwXPJfVSgG2JNiW0oxEDlVqe6EnIkBoMba9FpHha00lRhQUPHvG+qLL6k2WIymPQNVZVXyq8gwSbii7aef/KdC0APNTS66QGpX6gcUwcqlmk0ijxJHJKd6sNIx49L6JeXlZSw9zulTpx8aeZslZGmxVl5dtWzl6lWpeiCTJ51pBtKtZHHBjvb2rR173vS3s7QUkWjUZIjpIgYgQz1IJQa0O1RmB6hF5vdWrRjQLwK1YkAeG5V9BmpPqQaUNCcC/qipHReC6yg6gal2G/lCReGLZUMMAPTg7p98w3l4RMlyXnARPM6YwW4pHo7VVNex3NT09fcE5pQ++M8/zLsewIbAXLBEPtDWh6zNoVHiiMDt2Lpli1o9yMjaQgxaZs4UBfaZAqrMRXX1dTLDUWDBVRkOGchYDQWjNaqqql2yjVf6ikGGpBID5Nstcj8vKQY4olyIQSSs6pqiKg3rCbJ3SvETCj0DetTJYgC3IFlNsU1JMcBGciYGjF5vcXEJi8tSUlJm9ISNg34V5XvTLKGRA8i5y68YkAdKtRjAodEgBnh80i6VCrdD22KuujXIZAkNnTOpwE2TobeBim3hi4HdQroTAhFjqn1IJQbCI4KBQ4U3VaBmUaMYsJQihO0qZiMZIJCNUJyiZ1gIf7rIqCGWx6ANTcliIOpVBnQjIKdigB8a8gtbqGe3zf7xfffxAUn2ATfkEXuDUDT+gk8gU95hdxiG0i9xyFB17RWDirC2zli9gI1ChZ0lFAMBw1VnCTWIFqWQBGKgrR8lK3rQUJpAqCxO4JHIHB0lAddAc3cTbJnZEC9YMYDRLLEnSu0Ju5l0LMPASUIGYgnEIBSVEAMcIzVnqQJ+Dj+RbTGAncVOxuLklFrGG/f90awEeTEA+HXJi0vFADsmEgPkKxSDcBx2Ict120hcuAQCKo+oGvEBSfZBCmTKK69gwWLG1BvNtOR9dGmMgyUUg/Mm0y4igxJHBOqoueKbFT2g1LoSi+tjNa5MrSNMiZKmf4VoqEpgB0IQA2OCPvmFKQYw0/6IEcEXJkuKSRKJRvFY8nsLMSAD7ZPEALYMOTiWVAGfqjqN2sQAewJVQ32cFwP8LuQhG0Ee/Dp3esUXF5nJtwR/ApPFgN4hyOaTkYRFxaQznUCVCDVTnrQ1JLXlk+F671QbzbRobhXRC9zYGmqrOIGaVyhK64jQa8QS6smKHvSMGRGO9Jk6hky1JfGZlZnWC0jlQr/7SYMtsxS+GISJT4BA52MnAzGIxWP83lIxELWT8LYMR5oKbAF3s3KjgB+Fmqo6MXYz2ZNwjOwJFQbJM58b6DmBLIkuLurJyV3Q2PPkEyi8Q0RiAEvLCuUSI6zGRH2f7JA8assnkdaKaQBikN+pBsQyqF9cmuy2JjFQ4ohk3nSWRf8AeENQBbPTSlqQWJZWYFbgKOHqZx5MJqVrKuA+JmLAmSRqnkTQZxvkXQxSyQBFUgzwXUR4sB0cKQyfjBgAi9mCn8W1UBJwB+On2TeVgVNN+2ZDsUkVcOx8sVXc9J+DQO27yIegHRvIFN4SKJncq8yfc3qH8DdM3sTAYDhx/MTdd32ZD0iyD1KgtnxuwCOcRzEAStrxk9HWsg9DlNYRIW5Hxk1nGelBX2/fvr37RIF9Ng6emdPDxvrSuNOaqb2MRnUbbmQ2mSzpvCoY0HA0QsWAmieAK4k6IIV/tgtEDGB/g+GQZJAUA1pd5cGV8oaJxyBPJBYNRyIKAwqzrykAe0gr49SkCivg/M5DrkRN/9kOvohYIKkY4ASKxIDeJwUuBucGqAVn0iqSObi18bixhGKgYRpa9kmrlIIBRdrcDhHa9eB4eODJwfceP7tdFJ727GclxglEjL1jppmVOphMmBjdJAGkvja0Yit6yKkhgEIA/tkWWdUskVYM5G8aoT1FHTZZDPIO3UOcW2p/6ammzVlCq4oci5ENc8pNwA2AXxcF0Qmk9wk8SIVikPs+g3MJ8uTmVQxQMUUFiyUUg33WNihWiSOil7ekXQ+88VBvdCw5DMd8rISAnjGyr5m3GoHx9gdsMNPALb6GiBj8BCq2kmIA8HjjO3w8B1ZViRhEY2Hskqitgw8uGxMDB/cc5Wa3lUPPJ286k8UA0I9goKFncGXyGCKxSSeQ3ie4SagHyQMnbFoMdAf16wybyDMENUUNw1s0t+wrcUQgBnoJpHY9UMvpYWONK15ZnKkhIhVhlU3SMiR3jZJW73iMVgxFYkBrhSjOW6jCEQMnV/OgTRyoqCaHUKGKAc6tcMYZPdUwu8liAMvLdy3kN/AnUNjDIQSZ8HXobk+LgV6Q0aV6tIpohjxr6o2PUes4KCWOiNmk51y83OlBIGI8O2qaURaHl4CnKBPi8biGq5KKZN2mldApIQaAigHdPZhRajSTAywUdh4uQqGJAX9ueTFAUiQG2GdaDYctphcFn+I85DfA4kuucjEtBtlAs1XVEQ0rFAFt46CUOCLE7dD1nOROD8Cwz3h8wOSyJ5Y1xubWxBFhH6gHsqmhCU8SXCqRJOBRR4U6WQywu7zlzYFVVSQG0QkxQB61RL4IeZdocvCGiYUqHGDi6dxguvMyusu3yeC6AJSES1FkyXPAmaeNWkKmxSAbkP7SvI4uBdrEALZFw25zrSDp+5B1F8ic6gGAlwBJONhr7vdmemnhImjo4peETBeU8rnwYON5xjMPC0tvBFiioNQbMXVHoRg4LLhzJokBtUQikE97RwsqUBMPe4r9lREDfCScN0dL4qJA3kSCl/uQLAaQrhA3WWFaDFIxOjrSdbaTJZShbZimjpC5YOqtDdfzreXSK5nZkI1zkms9oISjhtGA0RvK9GBIzztMiB6Q6zb5ocWDLVkBzAH6igHAR/h6oQVU9oUmXigG/HHx1l8kBkjqc+H1g4oBdgzSNS0GqWhqaiovL7VYTLPb2lhWOlDF1rwAgy7EOFhCMZq7vpU4Ilk6Jzpv0WYxzKyML2uMrZyRPtTrM9xI9XzxVHCjgyckCha5YMWAe0kneWOzEjEAOAp8WmghNN74Iy8GSNKrAGvLiwE+ciUNo8pvmBYDJVRVV9GFkJtmNLEsWbgadj7PoZK5YMmg5q6t61uJI5K9c6KnHlQWkwWLEDk+YNp91pw29HKDUDMENeSw+ncSpUK0slgq85o9ksUAMgBbH4hMiEEkGrWZ4jCLtHM4rRgUMrgD+P4PkRhQq0qTANYWR8qLARUGftZYIQQ6c2JaDHQELru2KrZekHb8dHPBktE8Oywai6Z1RDJflEIG3fQAYjCjLH6kz3R62ATjxXJzAq6ZjsON8oikGIiMPMQgFo/BIML0gFRiYDOLa6+FGVDHB/JigCQVA9qFwIsB4nRCQIEEXAJeDKIG27QYZIjug2c0wK3DKHoE06OtZR9KkNaOEbcjm+u56qMHZpMBYtAxpFoJ8MzgqrNEBpDhRllYQDGnxEPRaNjtC/uCIWMi5A+Gh73hALfaRCDEInTlCVZe1jMgc6aSKrAFGlKIATJlxCAUzc9yRvKByhvEIL+dn+cAdEARS+QJ0o6Pm1IlmhelSC8GOi1KIYM+elBZlIASaOsfNmtaQTcZ4mrpNAI1Z8DSoSKPqiXsHW19jiWYvaOmUB76FclmIuQJq66FHERiAOTFAMcLMaBlcr+ckXzA/hS+GMyePftf7/sxH5BkH6RAbXl5Dh08+ObWNxDe2radZSVRCGKgeUCRttlhShwRvRalkEEfPSixJ4b82ndUr74RCKwGPc8XvKXDJRaJAeKShwE/DA6BEGExmEs6bmcKBRwOFYNQDM4iycE5oWIAu58sBigZiEyUwbkqrAtuzPOim0rAHpLuyHHS7rDa8vJEo7GWmbPOv3CtTHU476NLSWuDhgFFWlv2lTgiOi5KIYM+eoDHOKy5AR9X3miy6NRDomPfclbhLR2Ni8QgFRYj8SdSga+LJkwVfnDCsnNKhgjN4VvAJMUAH9kFb6eh+fzW8h4sxingpOJ5s5hMfEhredWWz5AsjaRUjsYBRVpnhykaUKTrohQy5PO8C8FNptdbA3WXBJhgfZ8AbWKQlkKYn5V5wFHwYoCzkSwG+EgoBjhp/Hd9EXEDTs4CfhoBYmY1RuOFJglW06TKuNEw8XYbJVXO1OVhOllMJ2D1clALlgH1dA0DioDmRSnSOiK57FcvFD0AqBToMiRDSc+MKuxm0pShF1kSAyXQJprCD3S1JZwNnKVkMUC+UAz4k4aPivPnK+CnzVwTFnas0CQhUVUUDAVZgnu/zZfv/jIfTpyYeL8NqUvhAtjN/sDEW/JlypPNVk28eT9DoAQWTW8V1hEli0snA59GgxgoestNbldtyr8e4CzyAXUDXVzFLA03gsUBmTRYo/6YFzHAuc2jrVQbIMDJYgCRoGeMzxeJAT2xuXcU8Fv4Rfw0doBKAiwDJKGAurLqXT6fh8Vl8XhGExX2RHWRivL1LpbIjKwOq1cI5DBni1IodERy3JWSZz1IPlA4jLocv+7DjajFgQFC5VQbsGI5EAOcO2FdG4H22QJquaZEEIkBDgF6IBQD5CeLAc1BMpfih9+iV1MoCcBiCOOpJ7F8k2guC5pjY54xlk4BKvveoD/RVJKoL/KHg16fl32QAhQIxsPYOEtnAB75vA8oikbh1akWA9RftcmYEkck910p+fcPktGrmkCHG+FWUwH7qgR41PnFljXAV2lB9sQAWM1ig+XkXHBqpGC8REPmCzZgV3kxoEosEgkeHDIvBtA/FA7HxAKTvUBlQFISrIawsTAkIX5ek9vnlpEEf8A/MNiXmFlKvDOzKTG7zD0yJCMJ+GhoeCC+toUceWbkYFh9WmKa3nIDg6Ftz5U4ItrcjgwpRD0AekkCEWFVbrusawILDmBx1JIzMQCSphCeAeoZ+EXg54bJo1jhBwgwbD217yIxEF5UJOlpRAGIH0rSlZFyAy8DQkmAhmGv4Epi3wtCEkrtsN3u8Fhffw9MOV8RRgRKAMs+4B6ItZYmqp00P1HhiLWVDY0OoTwKiMojc8gzlFjbjM3S/EzI++hS0nSjaUCR9hWK0jki+Wo9K1A9wP2hy/gqeGTaRgukAmKAGrcMMEkIQnImBrakBaWFAbuNXySWNEEMFgoXfoBxx57z9l1SDHhw1lEeBUJ6S2xapowkXNIamFM6ZPR1dp0+3XkSAZGB8IinwRY/ryHRWEIWpBwPiToXMgPNRSgwqXzCg43Er2hL6NGTnPsmEREQAyWLSyejTcZIx2a6rs08TsczJlef2zYvqVq2yFZWytIKmFsT7xlTPT95pWPGDYsumZV6uqNe3cJmk1lhH73b7X5m+yuvePfG4sT04y8sUYmN1KlhT/EXIIIatyQwBzAE+ArqsxQqBjAKCJrFgO4AdgbGEXsFKyPcJeRTYA1l7k96LHR/ZKxqIYNjR70qlRjguIBex/WVZTc2FlexBM5e918SgR6WMBh6ooagtdJcfRFLGwztY91v9uwS6oEonjDaognV5iNzfvThv3fZdRsCJMnuzqO/3v4MjRt9IYM3ROM8pGk+kVhdO++G8z84MjJaVlZR39Dw7tvbL7vi8twMq5cBYqChD9lCpoep3nMY21BYfHJEUDHQxWF65eWX7/jsZ1lCGQWtByAa09LJk4zZrGihRFV6ANsq7FtGfZZWZnlDzxtfUknMwDNQqAdpkRQDZMqryJQApwVyiOPirwhyMuFHF3yOxThEegCMzgZz49UsYTAEouF7d/yGHxGbLAk2iFmeJCGXqNKDDVdeyUrkiUgkomHUiUJjIoI6Ikr6kPXqNtCgBwXaXsSj13AjzkvTwdUQUmwlxpSCBx7GGg8/b+j1EgO10N9NFfDrPoEYYLflh+JkaFVzBnSLTmQDuCbyB6UkqKU/MITTG0rhHCAejhtMibBFvF7tNHlD2xBEzS37SgYUwdzpJQbaqtFT4HHH2ddFEpR046gF+4U9gyGgFh/PPyVfYgDwozCOkiE8/j4yCm+q+G7n5IBvTS3o5cB1yXBwrVpwfYG8JARjRBKspql2TqVY17KExaYmqB3Ca2EJxeBx1zY7DGKgaFEKnabjwRfR1m86Nap/ejUyEomGvdQPan1g/f3cu1AoeRQDgMMLcSNzkgPfqwGEBuucgRcDYcNRzsCPAhlJwPkPRA3GOHm3HfeNKYnxYP/Cs9Y7Vm5qKatlWVMNGAENYgC0tezjt9I6IvouSqHEF5FkaugBroEukqD7cCMb59sJrU9+xUAhCsUAx1Jo76TkA3YMhyBEJAYZ7rlaqJVIJQkQYxpHJnmrHfe6U1J0qmHc01vSF+k6duqf7r+3uawWqsA+UIwuvn6GKGnHT0ZbQwVxRNLNbNDsdkiibZY1ZYo0D2NHTSZdJAFnSt8F73BbnatiQPfcn7RCQyEE7Bg9EIpIDAAioq/IBNjoYMwkDNxWVUBPFxBKAhwCupO0pY6XBD/c1Hi01J6YWsG+v6dkOFZVWYMQOus27ek9MnRmQXULOWBlmHXqDswEbWJg5mAJxSh0RLQNXZWEdN1n0Co+ZfQAQBJ0GaqM86Vh+klacD3p+PdzSQzIUST1QxRCoIeAw6HVeXgDQjEAiIi+IhNwpEYTnncrH4LRyYNk4mnqEAlU8SwWkSSIZEAY94VRzDiVwtERc08YSkCOzWBAZO+evcdeffeedTcr70vIsxTQTkT1dWfNfcgKBxTpYtaAEl9EnkIfb5oMEUCt3pAQXIZkwVc13hT5tBcRzz+OnNqCbIgB3QHsTIbjTfF12/gqQDJQMcCBULtWyGBX+XqVaGqC/GwMETgneA7stonZthVBc7mjhCVg7gWDTR0mY73daLC4TCXzWJbBcNh9utfgtZtjkWiU1wOAOO4HyAA97RADGo8ZTLZ8TEDVzC0L1m9//Hm/L+gqnljAbmh4oGlea+Xa+S2ltY8d+Cty5MebfuyiDw273SUlZXkZbwpzqWUestEovDGUo2RmA6mD6HQbwJKLJje8ufWNc228aTIWnV4ap+9wIwg8bBOsf8F6BrBEysUAxjGQVzHABYbyyQcgdAJE9RpcAv4j+YCDxSHjnhIai5GQ95S7mw+ngwk+HPXHt7pjWwdGX+/YwYde7xB2IBTD4028BOqsAP42SPYSphZFzqIZG9cEjGHhokbwErqOnTLt6S2yOgq8e1lbqwDqG9oXpUgnBjouSgExgPywRAZMPT0ABTvcCEYqzK20gwcehqagxICvosrAiwFsmbbzAjuOijk2wge4MhqCy8bmAciEYm5h0VRVA1wIfmCVfCAvPY7TA4/z40ASLrsK/wLlHeTBppIAsDUZScCPIj61+NXu54ci3n/99vf9xpBIEvbu2fvME3+8d/2nC3YQKh5zbQNJtNU+ycyG3C5KoXlAkYip115EIRdYjz4AkTOoub0IhZFP66T4CkwAIq3W+iZbWYnZQQplgJmbCI2fwvnFzYk4zYH5pvlpQXkUQ2F5SPMLV0zJNiXB17ERcCYydDTQG05EcU60bQ0nUAb8CtwdeGMgwg2lFf4KPoVaKAEHS8UPBhpbgzZYzONjCvFo0AvMk0gYpXYrYbOww+ZAzGok1UOyZc75AIjzDUfYhMtmCsXV1Q3/ad0tf+vcj8gHmpf+eNtjtyy5/MxYf+do/y1LrhAlHzvw2rpmYpq3dR6gyeayWtqkg42Iksnb3HbmAPk9KeZVzqgwF/W+skey4ci3uGJd7YLH//Ycyx0n7+1FoXBIQ81P26IUcETSjlihYqBLOweAGEiOZ9XQXjRV9QDgvGfYeUKB18YLtWY9sESizjCuCrEv4bih1Ga9rHF1a2l9c0tziWuiGVqSWAKmI/3NipvHrMf745QTxU2m+iEiBIPB0dGRMz1dL3n2umNpltHXBr00uOGgClburEAVUPXmTyRtUJIHX7ebWUUeXxyXBDynmZ5n0iUtJQnYVfwibiQNevDrzfc8fXQbIpvnr7v96ftgyo8MnTk62HnPuptFyfu2PY4yKInyNDm/unlBVQssPjYiSiZv8+kjJEcSHNHtKzb6/f6/PPz7ooRdJAnLVyyf94GVv379TyxrnPzqARl/qb5lWPmiZ0JgThX2ISd3XmoDNhCwxGTeX3oA4JRpmHGeDN+ro00PAt6odSxotxCbghwYpstmLF/ZvGDVqlUKJxzCvVRSf8E9qtdQBCVglzJR3L7evgNHDj49ussTm3hZo3KMx0dMx0dYYiqQsJgCV7DBlw6bHQ9DsiQE4TtyN5IqPTAeG7J3jOXs0uOih9fNkFzLGocTjkQW1cz8/53/ke/88HuGcEIoCX39PYEWp6FC7BDnUQ8i0UjapptkhHVEVShxROBzKDQLaZHvIX/f6QHAvatLt7CVXCOLe9j9tHo9CA4ELJEYrwcOs/OWeZevXbfW4VDaUsRZXkV3LW4mvdxMJeDcZqK4x44e/cvJ7UdCZ1laDYljI6W9xrLScpYueE53nvRf1Urj0AP8xXUyJULU/8Bfegup0oPqojKEod3tlu6Aw55pw6NCRsdGXGtnF9VXHhk8w7LGoXqAyCWtyyF2woYjr8877ArH51QUzvgieXOZCs2NOYoGFGlyOySB0ZD3Rd4X44tE6GUfI9H0XUAKKbEWVVRUKBcDQFoolNX+dPGHlIM6aSant6qquslSBfOnIcDNmurgSaXOgebRROtalnAD/JeydK64ZckV+F2WkOKNU3sXNs664KNXDURGoQQIQ0UBy4pKiylN7ThnoCqjrYtR2+ww/FZaMdB3UQolDVNqyb9/MLstI/8AEJ3UYxUK3AS4sZ9967UM/YMaR9WtqzauXLWSfJYE6kpej3STusL2epho/GOJ7IM9kldKi8Vc7JpoNBAyOjL60s6tL3v3mqVuDTr4EtCBNyLOAf8ABMMhOrggmtDiH1CMx4bq3dZc+gfuxS7J193w/gGlprj8m+s+cf/99/eZ/eEl1biIzlDEGIiHJ98vufcP0tadU6GtZV+JI6JvH7ISX2QKthctvmR2Zu1FFL0kAfbrxZ1bs6QHeCqOHzve09PjKimxcg2I2G3lNywq6iyWc+T3EyJqdzja2trKysWvVsf5fGUX0QPYfdEWYP8hAzAcJiPpxcV5pieTx3J8pGrg/a4H8A8+0Lx026tb2vcdzaUeXHXT5pbZrT/e9hjLGkekB+CS1uXwFVgC9jQQJpJgNIfjE7dr7vVAiblMhu9HVAUcESVL4NisNr16gKA9ShozpmT/Qeb+ASUWj+O2YwmtZE8PgsHge7veKykpmTt/Pt+URFrnFXfYmsmCCjkdX8SDm0S++tN1tuvM6dOz29rq6utYFgfVgxc9e/3ct2H3eUcBJ4oqAaBDg0RY20dq3vd6sKC6ZX5187Ftu0dO9OZSDxZ96KKqlvrkgUbJeiDC5AtDEmxmeLEWXhJyrAepxl/Ko60PGY+GEkdExwFFyjtFst9/EInDdU0Ow7uHIocmZ/YqGmWIy8YJEu6bTALBTBa8y4+5VMK+ffsqKiuXLl8u7FdAfcGkeAjp+LnKA6R7Q/bcNs1oWrZ8WUd7OwSAZSUBfXVyAzoRoXFIAnSCSgVdjlT4iqFpwKB/9OhgJ/6ydK44M9aH32UJlUS5N22gembLR18CtEeDGOAO1zagSMlEMFKP08k0ae4UUYhYD3w+H6mq+cNGX0gi9HlQa6vojYlCoiNR3BXnkyVng8YON9tiOlDdyNjMMWEwmy05HqGvkJ6eHuzewkWLWFoAbhTlTYpZvRXkIUNdZTstil2ulpkzjx09ytJJWLjZcz5OABAgBsihwLWCEUGtGfcBdGIanoLtT5aHzseGJNjNiVzqO+rOGkZIk5Z9TYtSKFlZmvQh67cohbZZ1sqR1IOY0R8mg8aSQzBiMVvgwsuH4uI0M7BE6GjmLDqtbqQvvT29LS0tRLKkgqo5kJm3iWkm7aBpeAnYPZ83pWsokn3qCsBXwP+oUca4euW0fyBk25kD9217fNsZMoU4lzx24DX8LktoAtoPSYB9hiSQCywgFAx6xsZYQj+IudRkSbQZDdIIlm6kO+1DZomMgfzoPqBIhMr2IsUUWU0LK4sQWkrSN3pqvpCSaJP6rOJ2u2tq2ELByeBeVC4JqI/keMipkLQ1nbLyMq/XxxKywPRbTKSNqIhrOIL5APRmL+IWPtI8RvNcYn518+b56+areceALqxrXkpnOGcClQRU2O0Cp722piYcCfX2dsObZFl6ABsS1rSgG8RAQ2OOEkdEfzHIfnNxtp651vKy765f9+2L13xygaJVD6G0OtZ8C1AS5CvXJpMpEAj4leHxeLwwuvkAl0m+Rc7lcoVCimYjR7k3+/vpbIPxygDqW9RRQKAKMc2UBhcxRJYVmbiWkIE1HPPnz2dZeqBtQTfczKq8c4rC+quObRX4ubS+iC5kSw/sjtqG2TdVN17G0gpAtVevmi8ug15tdtkmGAyePn16//79vT29w0PDQ4NDaQOK9ff392WZXikOHTp04sSJ0dFMuzdNZC0mXCaWpD3MCCYTGYdDQ576zguLbWcO/HjbY9s6Uy4wlyUeP/Ba8mBTITXFisd9Zf86EnOpfnQpadnXukIRS6QGMqNXHzJ8EcASWaawfHLSJKf+ukqCGrcG5c8xEIOOjg6H07lw0aJ58+fPmj27dVZrc0uzfJjZOnN29pk5c6bodxHmL5hfU1sDTYJ6sWNQj4Nbqrooaf1qUaCr1J2rKKw4bl6w7teb78m86UYt96y7Bb/LEpOxdHkbO+MPbLpLhSRkk6iCxaWTMWp9ZbGiAUVwO3RaoSjbA4pEFFwbLTndOtUMySCvghxuRMFNDDFoaGiora3lqxImU/rhRvhiDloSU9VuXC4XRMvv97vdioeQxUhngM1M2ojoVORglMzhkAy0EckbJu0M5zAKZxcWWn+y6ayn8mQwenr4az/+9sKamZe0Lmcf5Ak8C9ramTUuShHJ6aIUpGEqywOKRBRin52OeqhjE57uwJ46HI7yigqWHkeJW5ODKgPOW6o9ge9V31DvHlakBzFudAlkIBInzURUDJJnn1HMpnHXYWq09mWd6qKy+dXN+MvSuaKltA6/yxLjGDtHS497q7j36Ue6R+wHBhfVzMyjlwBzqVEMNL2ymDgi6Rq0NbsdkmjrFMmEQtQD0kKnYP63QmxW3dYMUQl+lA8SjI2NVVdXCwuxoGy4kYZx1mohk+VSOFhFRUV4NqKR9PsADaBiAKgYgJLx2Wc4XiF0jgL8g+lRp5SqotIFVS1VOdeD5rJa/C5LcBh7vc7DI1ACmqSvRXv2iT8/sOkuqALNzDFKJgYnQ5oNtA0oUqA92twOSZT4IrpTiHoANCu/JAXbt5zqvpQxxDzxzFaiVgj2MNX97bA7lIx5wJejcfLXYiJtQQDyEOLeUgmjj1oa/jotJJP+DP98F+itmVsKpz957crza2prRG/KhJdw33/9uy8SzH3DkTYx0DY7TKE50uZ2SIKfy8HTnUzhPnQ4HYAlMgMWTUcnLjfIGGKe3HQkyDgrSlwZ1Pdh8c0mMqjUzPkKYe71lhAJCnJIAe4jCo4JR3Vu9ycrpHD6kzfMP1/yffrdx0/PO2uBi1BkzdHySkDbgCLcrtomBCjRHuJ06DegKAfevyQFXQnDSdFr1C3qBXr1+OeMAmk1kjf6qBDJ14lg66FrvBhEuCUCeSxwEYwkE/KACAUScs73JyukcPqT793yG78h8q/f/r7BZhRJwt49e5/43aMPXp2jhiNST9Q0oEjjohQKxEDnRSlyOKBIRKE75Tg1elWBzaaCHm6UjJLaN/Fkc9KRIGP0sZMyrgwunlAMaP8BBV6CzUy8gQi32DX0AMlYrptMC5qC6k8+OnjmqRPbZ2+6oKjYIZIE60Dwv/7nZ6ThaNYKlpsdNI+/1Da0RIkjouM8ZDzOSiY3ZI986sFQzN/X25e2YU5HtcQ9IV+Z7evr1fay3ywhb4gpeEL08qJkkDf6MrpFpxlTMYAA2LkXytMAaMMRWR4ZPgQ3V3naLRCSt/UqWpYkN1L5I6GXO3Z+aNFF/GvR2AeChqOrFl/EsrIAqTtrGn+JB19DY45CR0THRSlyP6BIhPj9B/39/Rd94uLqOW02yTdeecLODl9dbQNLpiAYCjY21j/wwINBX+dfdz70wx3it7DyXFE8f15Jg2jR/GRgiZSvC52GRCJVR43X6+0Z6Pv98K6YKYhaqlnT+w8Qqtn7D1aRzzj++tprV3zwgywxTkdHR11dXXFxMUunRomTBHdVQ/VHFeRpFGhz55nO+vp6fv9pf8+Z06cR55emGeXej/aqby+MfgjnkHOpJY+ENhZR8WAcGynvO2fff1DmMPujShswjQX2frSZ5XX/eP5H7r///uT36XtrLbHqSfsJ1xCPBnxE+v6D2W1t7AP1oO6sodvArOmVxahjKRnliOdOr24DPFxK5Ec5OrwPJ8d6AObYakpM7OGRB+bOYmImQ9SqwL+MHjVN1EPpMQnjfBJ2B5aH78wE2CaKYIMRQ7Qz2jsUitIHWIMeYPtWk6HKUfXxFXrqgcgQSwIx0KsFUwZhJ79ID0A0Fj118iQiQj14ZdfW58f28mIAuzB+QSaBi2I1syFGFOPxkcr+97sebF6wDvX0Z5555p23382lHtz5uTvnz59/+9P3saxxqB4UWR0b512w6/Qh+7u9wvfpw2kIL61GvZoWptCmQl/EsLSidW3NApY7TfaB43LrbbexhDLyrwfKgeG2mxPRBDEasC9C8NTRCLXdVC2EcT5pGR/rwkMfV9h95FNbr1kPsFcQreaSqo8t01MPgJLRVqacLNHBd/In6wE4ceIE9EvkHzwzspe+1SCVGIiAZkNWp/UAFPL70b65/rbTA92//8UjNVbSvQExCJ1fn8BTOhn+seKhJwTQJ1H03KVtMHRFY9efHqDxEof1pgskXrD4l72dPSN+Gt8ys26gKHdjn/TCe+bsopKGR3/wEEvnhHz2H5xLQBhwK0MSQDjdDa0B+LwF2JGA/0XBjIc7CVViAHsCu4C/tAVpmsIBd5ew+f7ftv3+hVM777v3B0XFDpEY4NLBJ8B1RHDoPYbDazH3OVmTvScYeeOoeCmtA2fdvBhEzKapKAb5YloPyL07qdlaK6jXRLiu0aQakj7I9+hSUHlP29OQOfJeiGgJJtJAZyQaCdMAjyptgHhE40Q8cDKnKZD+ZNpiGY5GhPeWPxL0hYOH3J2dy4uDaxuFYkAVHTUk4hgpqPKrZW/FROvFsd7RJ97peO/0EDQASgDP4O32fvaZwXCwOtdDs6Y003pADJZelicS45qMWEp/lDQH5WZGgnwfmlmwn7AgOCfUc/LTtx3IBl+EjEnNuqZNEZ4+su32p+97+qi43Sbb3LftMb7zIBaLhSPhmJTrCUn47x3P4C9Lc08TxABA0WMdY/FjIwiJYyPW9olgODZiPE4CIkhajrMCNJ8vhmASNjMJgH/QUepkCc5LeO/UIFUC3jMA8AyOV5ayxDQK0EEPcK8EQ0FhyO8Q2hwgbBTBA2AWKEAskZX2IkpaQwxQlUvb05A55tTrsCLXJJg5AXcFYoC/gajBRnqA0gS+ncE6XVfh6un/tO6Wdc1LWDpX3LzkCvwu7iX4BBE4nSxbAnqxhAFADOBzu9q9M8acyaFuxNkwSgIiSDaOOWvcE/l8sdpBs7l/wriLeKe+6lSZVB/nOBCDbTNSvpRwGkl0eObc7iHYqOJiJx9aW1tWrFzJPi4MqAWnvVjawP3tMBtQSYrESZsGZAAPCWwftgkTlqU2omRIR4Lse+1BLB5LJOIw19kOMnATJ8h+EveLEwN60mgbgpKgSyPeVGfIP3Zk6MyQP9MXEKmlc7T/YP9JVPXS9khFJ181VIb4jiLcAA67Q3NIO65/R2PV9hk1Iw5xMZ/Vgo+2zKyLSPVmTSODPufrmk3XfO6Oz/LhgQce/MynP8M+OydAXRUWDRYQ1Z9QlDwDNIIc2DgkbebcrbejZOGNSDQXHQny0A4PIgYRIgY4VziHoZjSQMduvc8Z9I8eHezEX5bOFR3u7kP9p5RcAQiA8Kohmcvr1lVS9MqshufnNMH676mrwF+alHcdpknFtH7KAVsPglGiB7D4qPgIJYEfYIpieAxoGUq2bbGSqQb8nIxsghOUHCagrVs4YzhLtA0B4HThRNFzO40861qW3LPu5nUtS1k6V9y6/MpvrFc3dD0bGMMxky8sGYy+EB/84dhgwnjCbsff0VhC+NHUDaQalfMqXfr5B5uXr28sY81w3Z1nX37qedH8g77+nts+eevsWbNY2mBYe/HFNBL0dR45/MyhIVb+qY53un1DNK4Bi+z8A5fd2VbddPXiC6pcFZ5gAMkjfe1uv3/P2RN9nuFAJEDHONvNpO0ItolnWUPTvLo5TptzxYw5wUgwEkuEooHXjr57pK8rHg+Q0RFReL5s3AvsPqwbzhm2AD3ALuFT+1ggEY7hU7gI+KjSXvWJlR9asXIFv1xS5vMPklEyI4FM0tdp8mQy3P6L5x8gE6dg1mw2JNztdr/wzmsve/fyYgDVdFhYFZLPFAKdQAHC9PzkcXI/P7lvnj1WmenPVW7pTTtXSYZgKNhtHo3WS0yTBuTOTjcCe0rj6e1bNGPWoz/6DUvnhPQnFGLQVjODhsbyWparGKfF1lbWQAPiLFc/aksqPr7myp9c/6Wf3/y1+6//0mXzz1/WNHft7KXLmubctPpDf/eB65H/yG3fWjtrabFtYkACgGCg2J/v/NG/feSez33g+lvP/9DSxjnnty5F5mXzzv/BdXf97KZ7vnPNlz553ofwPMe5EZCw/lAFUcMRVCEcJzn4NMx9RL0EMhcgm6+zUNKRABchTvSer7nrGxSBn+ftPpQYth6a6g2zNjeRl4AkMpEHA5osFe9D8tWffOuKK7+Z5B9U2EvaShsRKiNGGlqcVda8XiZ7NFaMpy774FfwWyxx7jK1BfbOtdf96uNfv2X1Blj/vrFh+AG/e/eF5/ZvvfP/vvuT1x59fOeLfzmw1RcOIP+bG+/47098Gw4E/SIiEIl7N90BVUCB3+14cV/XCXzlwdf/77+2PPrff3uyd2yo3zNcX1r1sdUfeurzD/z9pTdQnwDm3mFmkuC0kqYk2DWbiYw0RQ78A4gE/4Cg/p7V1amU1P21rf+lDEWSALPOW3b6+rMQ91jRUyeUBCoG9DyjzHT/AchXf/Lpkb5DA2QpKiE3zVn/d4uvQbjAbaThkzPW/mDt575z3qdZiZxgiSdmeIMre4bXnuxd3TmwvGsQkfNP988ZGC0L6jmyEQKAbeInsH38Co3g76whz7mqDTqsVyHfXpTV9Sp+eO3nlza2vXZ059G+068cedcbCiCTtkhExtt2al2Vvqjhu1ffUVda5Qn6v/yH+81Gw79/5Gt1JZXtg11P7t26r3P/gD+ACikQmiRw9ZLz60sqr1566amh7m8881OqB7RAMMZakGDXir0BYyQGSRC2Fy1bvgxbMHIjL7PRXkSBE5J2woHJpNvi7EIk9z+5vei5t1972r2XJuE52c1khgGvEEgijouFi4oTC3CS6YfW9pGagfd7e1F1URnC0O52S3cgl+1FjvNbHHXlIkn4/OJrZ5eSZ//1p39Jc1auu7q8muTc89b/0hwh2Wgvah0LzPAGIAksncSYw3a8pixkyaiZFNtvHRqr9RJ7koqe0uLOCldU5OHqR4G2FxUysOk0ArMOMagrJUkYF2EPcL93eNQ//MUn7v/xS79E+euXX7p52aWI4CtfePz+lw+/C/+Av6S4zajRn1lJNvX8wXdPDnW57EW1rgpeCWgB6iVAoqA9+DnkQwyol8D3KgPIbSyb772Dred7KVIBzcjBjAQlQKFxdXAa+YcIfoCkGExDyVt/8oqrCqE/WQhs9JIhT+uYX0YMQGkwvLxrKJNGJHwX3oC8GICGMd/inmH5nZlyKOg/KJ/oP2ga71hWjsOc3f4DsL+nnUZ8oQDM/Rcuvr6lskkoCbDaNpNhX9eJHacPXLPk0muWrvdHgv+340X6LVxQ2HRqoVx2J9Ti85d8HG4Btf6n3cMQDJh5bAdQs+XjvFJIAn6FbJw2E41Lgoi0I7gzxKzgzZq5WcciFXACSmxMBnDGcMKRwzMtBjLk6/1ov93z0ve3PMIS6RgJe3BBk4O+QAyqA4qagyzxOCy1NkmAfcd3FTYHFYcj55gkpNeDzcvWf+GSj9Jw3fL1LFcxTa6qLy7dRENjcRXL1YnXju3E3yvmrYEdRwQuAmr9f9679foVl/5o85fm1c3hJcHMLZT96pF3XI6iIpvjr0feiccDVAOIGUoYWisrv/rBj99//Zc6Brt+8uqj7545QR0CCEyR1fH60XdoTzJAJj6i8gAhgRKY+Z4DThKi2bX/EihZxyLtitlZgp0ceE7cqYN8CrWLZuJ84txOi0Eyg/7RI4NnBg3+vtioo8jmNQQREDnt74tbE4j3R0aSk/iLJAKfxEdIohiSfWG3JxGIW+MnfT1IIo6ACJLIRHzYHDgZGkruP/jFO3/8+gsP/PKdP+20Bml44uiW3+z40+O7nsXzlRx0pHUsUB6SuIGrXA4Ep018/0MSFvS5NVhq7lviB9hqNtEfQoRljQNJmDMwyhJTn6ndXgTbjb/FnBjw9I0Nw6D/9t0XP7vu+u9e+6WVM+ZAEmjbzv7uEyiA2rQ7QAaSwhLh+uLrX7z04/9+4z1d7q6/f+L+vV2kDG4kWHzYKQsnGkf7uxCnkgCjz0sC4nauFwEbF0pCjqG9FCyRAvgH+ZIEnJ8wN20VZxXnENAuZV4M6EfTpCLRXBZf2/y1r92z9uaNCIggefPnPo1488Y1yUn8RRKBT+Kjmz73qeD59UjWb1h+wceu+tidnwqeR5KIIyCCJDIRRyRBr5MUHcNn3cYYDZ2e/tPus30etvp0loBZnzG59QZ2eVFT5ZVLWy6cU49w+aIZ+Fs6vugpBXX8hjEfSyij0h8qndwjDaVZM6uW/yFElrdUi1Sh0h/Utx87j6TXg+7RgfaBszR0j0wsHKiQQDTcPtpDA+IsVz2oZjqtiVBMWLk0vH3qoC8cmF3VuKxpDssaB2b9C4/f/17nie9c86W/+8AN5Q5nMGpYPl6ssawKtht2av2cpb/91LfqSio///h9z+zbCvPEN23DQrkclRfMWgpr+7f2/VQeJCUBYiCUhLyYNrI6hIIFsfPSkYAzg7OKs4LT5QlP9CdPi4EquIajA7QFCcnHDryG+JnRvuQk/iKJwCe3ntz78O4XcQN8f8sjp0b63ji195E9L+FbSCKOQFuHkIk4IpIkpOr8uHYxizk2edUKGvRihjcorOnDHMM0z6opFdplVN4vnt9YVzap87lhNOXyR5I0jk7SDwhM8jZnVLouWzRD5JGo/aGCZWqML4IYFNkSwagxEiP1cQCzS7lu6cV3rr3OE/R95/lf0aq9CGjAvVffMeB1P7V3y53rrnfZ2dX95bY/N1c2XbXwgid2vfjw2y/wvZq8hXLZnfduugNK88Sulx7f+QLVAxTAR4HIJD1wegImMtSfGD58WldU9bFlbHwR5c2tb2RpfJEIeABp+wlsVlva/gYlKB9f9LJnL55c7+TKgIObzScjBtPji3SB+IXjrzDKHCOOJOl6Jb8Dh6LX+KI1faOuyERnADwDiMFIcVPcKD6BkVj85MAYS3D0u5whxQ57s3vijdAASlA22efgGQ2E+yZrQKdgCW5dCHu9NSUVN37wwyytlZaZM6uqlDbUTwE9EIoBEOlBsc35q0/8M273J/du/e27rItYRFt1009u+BJVAhyv0Br+5NX/23r8XauJ9HOKJGFp45zPX3w9XIeP/PKfkYnzxEsCvAGUpxaNdJAOB+yxGEweyqAiDD34yNL86AF5+BW8WROSwBIZoFwPnh/di3MlXLo4rRiAaT3IHNRScrD+eSr00oP1ZyctanD1CnKSj9dfMrOVvYYv25BBfCqrUHgSszqwMC1GI3mF1rDbPau1VfiuRnkKfb0KkRgAkR6A2VWNP7j274ptjpePvPuTVx9luZOhjUJUCYSS8HePfufU8LDNTAYjCSXhwllL/+nKO7yhwNee/K/2wS5Y+VSSgC+GBwPRYAwboW1NefQPgJJ1LMwms5JF8eRRqAd/efs1+j59nC4KPWmwibCSMkzrQSbQmgE3Oz2L4IbHpUxF8Ws66IGjygb/gGVx7UIXzqlHBHpw8aWX0MysYjKa0q60moy2V//rhdFgxD7DynW0t5eVlSnXgzQtziCP61UkiwFybGYIL0tSOoa6f/nWszgJVy44/+c3f43OQhDy1Q9+HGKACBU/nCYawd//d9VnWysr6bh4aqfwwW0XXo98FPu/HS9CDFAS1VheCagqoHqL8lRCoARIYq+wnwiwfXmErGORriOBaEauKi8wGTghvH7Tk4zzJi8GU51ym+v2eVchfH7xtZ+ef+3tC6+9c+G1t827dsOM1axENoFPEIrAHukjBhuaV+MokkNjcRWeCLjFqYIu5Hc0Jwyr1ap6LmckAiXO5/2NfearvKrQ6aJlAUkxoDnJBve1ozs/+9iPfOFQW3XTb2/71k+u/9LypjkIt57/IXgG0AlWbrIk4G9rZeO/33jPP234xKqWpQvr53zqwo0of/3ySz1B/53/952XDm2lVX6QLAmwa0wSYkQS4LjQgHh+oQtNs0QKorlaEDuWIKeI/hIvBhDRc5uV1XNaS+oRZpc2tJY0zCppQGRmSUNbaSMrkR1ghqAE+i5ti33GzieHxZWtEHU8CKmCLozYJ5ljf05WK+KhtWyWUAaerPy2FFkt1rQ1wlSk/9rT+7b8/I0/0PDM3i0sVzFd3qGf7X+eBuWNRVazoTiFGPA5Ivo97ge2POEPhxBf1jTn/uu/hAA9oJ4B6PMM//bdF7/25H/d8+RPn9j14oDXTSWhyOa4fP7537n6s9+/7ks3rf5QfSnpe/nO8786PTwMgwnrn0oSYNdg3ejAPBg4PuTXP6AU4IwEnKv3iRgoB+ZbYbil7bLvrv4UDesblos+pQFuQTiSfkCBXuBq4kGQCXohXBMiEI6OKZuVljkwrGrFIJbXDhtAln3NYEnj9HrQPTIx3rRrVPVA42BM9XhTiIHTkggITL8Fd56sGIAr5q/5ymU3FdudJ4d7/+dvT8HuI/A9zD9/88lbH/4uknu7Tuw+e+Lht1/4/KPfeeitJ72hgD8SfHTHCw+8/n+/3/XiWx37UBg3wb1X37Fh4fmw/jKSQNvEEcenkCs+CO7evIFDsKS7LWA4cnDv4oTQF+XzzWvT8MB8Kwx204R9RfVT9CkNOXnjxQR4FuAfyAS9GJw8yOdQ1zCLZRMNhpU8UNF8ioHJmOlKZQXXXpQsBsgpsqYRgwtbF39l/U3FNucvtj/z5T/+x18OvXWg52T7YNfa2WThF4jBk3u30pIUWCXYpuf2b/3Xl36JbwUjgZcPv/vYzhfve+VXn3rkO+0DZM2ir17x8YtmL/VFiN2XkQTEgzGyNT5I7ifKi4Jkpo4Bd3P6joRYLNvLaZDTNf6i/GQx4Dvhp5HHMzo0MthDQ9A/aVhkvohxS9XKBL3oLWKd85Qhb3DvmUGWyA54cDQY1nA4nNX1jOXBQ6+h31uE+d5772VRDp/P96s/P1RUWWke3/QXLvnozWuuunLRRQhtpY179uxxFZfQjyg+n3f5suUVFRUsbTA0z2TjwKKRMZOv79LGD13VsgqhfbTXHfI6LAm7mRiCVEEkBiJ5SAYG/UfXfd5mtv7nlidePPQ2zSx1FP/4w1+kC1w/uPUPPm7pUyGwU6j7u/3DN63ZuLJ54bBv+Fg/GUcUjgZePfrempaFlcWl581c8JcD2/0R4rDaLeQrCAB/oATYVdIGYjZYQlErNwibhlJ70eK6OXX1ddzvEM6cPj27jQ254RkZcbtcrswvoQwQhLRjjaAH5tQvx5fB7ZbYf2TiL38zBIPBY2dPHg704VQnPyg4e3AaYFboWRVhdgeL/cacLeqZOaNjI5E5bDTUHJO/JXwq4TkuCiPeU/vgkZLBC6ZInMxaoeXTUnSma/TU8d5OEs4EhoYn3zUbmldf2bxmTe18GhZXtu4dYot6yVNhL/n0gqv4LyIEYuGBwAj7mGOlabg80CE6EISO0Z6OEGmeTYXzlFdkK1QB59VjCsVd1qDFXB6KOgQex1ggXDVneZbGm+JZsI8PD1NOKjFwD7v/9sabHe3teDSCAVgho9M5aT0FvcA+Jz/F+FGHw9HQoHSUVx78g0jMGEodfGF1YgCumL8GkrC/u/21o2Q5I4DkD6/7fFv1DHqC6HsO6EdC8Fh+YA7rar5r/Sc+tOh85MByxeOB777wS3h/8BLWcR4Gav0QACfXHUoh1V7OdcBdijiMGh8krVu+UDI6Ii/rWEBiIQbhfA/HyhKJqDcR6JEIoay0dYi6fKEHCjuuK+0lwi8iXNwgXku1IT4sPgouBMKTZn5llRPlRdlbWVoIqWWrn53DDe2Vvo937tjR19uHcOTQ4e3btv/l2ed+9/BvX3np5Z07dnacaIdasHKZoaGrQxIF/Qd6r1cBiwkTkCrgUwrEAJ5EWjEAF7Yuxt9n9r9Jk7OrGn/1iX/GXy6Fs2Sib7/5wsXXL2+aQ0ejInLlwvN/cv2X/uHyj/P9b5CEL1x8QzBGJGEsMPz2yf346JI5y6gGkIag8TGpFNh96heHx0ea0qC85TQHDb6mgulIEAEfEddax1aFaYS0j3WzmEq6feKmGEcKO9MXihcl9SELQ+aYuUoDQtRp6ah2xbIvCRpGauLZkfHC4UOzmAB95cFiJi/GZYnMSK8HT++dGF/09L5JrfBK6PZpHF8EMfALfAUZ6Aii/d0d+Hvd0osf+Mg/wD/gPkFm+9unDp4c7kVN//rll95//Zd+e9u3Xv7SfyLy1Ss+Pru66cm9W3/y2qO/ffeFd0+RJYWvWXrpT66/y2x2QhLODJOZBzWuCl4DeEmgHaR8KJ78GNAZcyJiUs30cbagEO6/LAaz2aKoIyFrI6axEzhFOFEu20RvAR46Hbscz3lWrrv6ss2fpaF1gdLpRTxrauZtaF5Ng/wyw4GY0tE7qEbhCsqEzCE/Me52Dzht+2pLg5b0JkszFkv6J0UEHmH5PuTV561Zc96a5pZmmZbhTOQBO5z53FKe9P0HkwjHrO6Iqv6Dk9173uxWtx4sLwa8ryDPnWuvw9+j/ae/ePGNGxddRDMf2/XKD156+MXDb7/ZvufFQ2+/c+rg/LqZFUUTe94+2PXFJ+7f3rEfkb1dJ9488d57Z/bPq505v6716iXr+r1jsFyrWxaVO0seeedFaABpR+I9G+6VXnyI+aOxCJklR4PTUrS0Xtx/gBvCbEJlfdwcck17TqfTzN2Cuvh6MphNZiUdCUpGqfIo7z84GenDyQzEyPsyUePDCQS4yjilMpfYPKX7D+zmVovEsY3GDfvDCdwzRVZLOG5U7iCuqZ1fYWd3b8dYDwKNU1ZGT5SNvhd3T4TXfJN+/bpZayEJbdzbjz2RAP91o9cb2bP71NH3+ICPRJ0TVxRL35x7g4mA2SiagzYptGfafxAwh8xlVjpsDyFuNQ2WOBImY3E4WtOmc/8Bqthq+5DhWKd9Hy02W11T0zqrdfHSJW1z2iorK4tLXHgYg4EgK5GEz+sbHBjs7Ow8fuzYvr37+vr6+vv6fF4v6mwibyPt3Gn9+w/Om7mIdiYjIM5yFVNhd9HOZIRKR/oln9SKwRXz19DIv1z16aWNbTT+n1ueeHTny+Q9NuN0DHV//dn/8XGzEwBdiAJ/aRLgET3c1/WtZ//r5OBZl9351Q9+4o611yMflvqy+efDM6B+K+5yzaY7wuoR+D4NjGy+4ngCJfd69joScDGhlFACCIP4+KdRQMfw2ZPjoWcsu+tLKyRmMtGRY6lC5uCGCUUnBX/c2OFybm8Sr0GQIdpGaoYj6gYUFbtcs+e0wV24+tprPvmpWzdcdeWyFcvlXQcA76H9RDs8BvgN8B7gQ7y1bTv8CeRrmDstT3o9WDNz8ZULL6QBcZarmEpHyZUtK2mgFRyY+2JryqDWM/jK+psQEZp+eAZ8x7IQlHn2wN+MRnLI/MuWhUAShvyB/9rCVkCCEnQMnkXkax/8BJUEMg3CIhGgE/zkZARbiqY80kw/6b1LAknIfo8uvJC0jYzj7Vd6goPEeaN9NDjDUFMX13CECJLnKkaLy+hsEAWDSe6xl+e142//4p0/0XCojzSNCmlI59f17X5797a/0NB75jjLNRhKFdx3oqMgwc5anHifWDJkDqlGjLcXiYKOoIqiwbCSAUX0ttZKXX3dsuXLLr1s/cduuen6G69fu27tgkULKyonGlokcQ+7qTy8+vIrD/3y10/9+ak3t75x/NjENc2ELDbGpSLt+CKFF/vC1sXXLb0YVh7ewB3/9yMqCf0eNzwDWiCZ/d1kEB4kYV+X9Gg86iW8fvRdxJ/bv+Uf/3T/7959AXFIwqKGOd4wWaQzOfgmT9NHLSYVsbj0eP9sGOJkFK1jEYvq25FAHAIj6zeOJ8irRmnlEZGCGoilL8bSeebGq0XBMus2/GUldCVVly9PcEQ4fcHDcuE1KrgEwkNgYcb1lrbPGh3a16orKFA9V9tgKzOgSBtqXQfsMOdpG4aHhiAGkIQXnnseEkU/1Ux6Pdh5+uDLh9+mAXGWq5jhoOflM7tpcIfIjQhzz1rhpYJyG3Hn2s34+4vtz8AbgBh0DJIBFW+fOsB9mAaLxZLqNfSQhDfaySzlEwNdkP8/7X7x1SPvIPm1DZ8QdhoLg4O0cU0Eq2wtHHeSZLUChjjD6oYSlDjF+s6xxOWGjvKXFf/TymPWD/XcIu60JiwmEmzmeNK7iU2Vq0SBfZCO8uqGWQtWCQNy2GcKgNjTVyVLhimBhpGaqLplu/YmdB2gEHAd2ua08a4DV8US73NPT8/uXe+xhFbS68GO04dePvQWDYizXMW4Q96XzrxHw3BQt3mVcA5qSyqEcw4oHUNyw+yKbaxzclljm5VogrSb7QkGYJqHfcOwYjDRD7/1JJK1rorzZi7lfWFhQDHqw9KQVtJStQ7loNUIt35aScDB5mBPzm1muSZGEwhxBzSO2U+YTTGXnYQirq1tMqaKVaLAPhgnlcVHvHX+KmFQpQekm1fUhywIhY+ZgyWUAVc+x08HZACuw0Xr1kIYIA9Xbbxq1epVlVKvuDl4QHV9XcRUuGhSzOYmHr99St3xX9i6RBixmM021A5oVhLNlU0W7n1nnlDgYA9pX2qpbKITDkRB7fwDGFzJ8f65McSkIyGFb8RD2q/iMeKTpoYVnUYNmvUgQ4QWv6a2AfV6XZjSTh4eBLV9yOQJzcnoj1TYbfbm5paVq1d9+IYPS0qC15NRnTu9Hnzhko/+5MZ/oAFxlquYtrKGf/vAHTQgznIzZkkDWf7hpMAboLMQxqehSQB/gh+MhPh1S8lLe3BPJL8/kq56ZLeQVy5TSWgf7EKZuTVNIo+YBhu3agUflNSM4G/msyPBUkALYp+THB4+zWKTCUbkFnjQjGiz8r8yFhzjL35yyeQcyeFMKAZtI55xkrvMh0IG97+WeciRiKoBRboj7E6wS3UteL0TnUMamKr+gYhimxMmHhG6dgXNFILMf7nq0yzBcefa6+jEZtwZdqsNwkDzXXbnBu59Ccub5kS4Ze8gCfXcxv2RoNAd5gNqW/wQaYQMK1+F05EQjuiwsDDOhqi7RWHg54FPRd4+tffbr/4c4esvPPCdlx/49ksPfOPFB773ygPbOvewErry022P/vKdP/HhF+/+Cfcg7lseFHhox58e3kk+Pdo/MZhi26k99CuP7PwTCuDvri5xmzC+i6MQhe+++t9UD0S+sjAULEZNi1LgccjenE0laOjqUMtUfeYO9JAhd9Sgg6WNbLU4unKRSBIgFchMdh2gEB9fcyUtbLNYzSZzW3XT/dd/iS52RJukqCTMqp6BeM/okOiOpwFlhO1F0Yzvmdx0JKSd1qhL+xWkTVRtVBjSdsMUMokUg44Tlqx0s8I0dwyfpeGU++yQbwDVG/pmDgrq+KfwEVcgOHnZefqt027yKf4GkyoB0q/LNxoTqPtMTTQsSoEHQdKhzxk6LkohQ3o9+Pkbf/jqn/6DBsRZrmLaR3v+8W+/ogFxlpsxb58k44hE/QEUun4Rrf5ft/RiGP1fffzryHxm/5t3PPrDa//nawg3P/St/9zyRL/HfcvqDSj8w2s/j/JQgv++5R66JCqAKtCGo/Nal9a4iH+w+8x+0cwDGhTOP1AODHEOFlKH/vFeUSq4kRRyNT08V5Ng2RPAqovkM1WArFoFy9xKWqEpg427FUTnw2GJZ35zSBHHbwkwC6WAY5JNt03EiW4JdxJWPmkPY8U2sSSYjDE6hSTL4AeEnrcwaAbVoLS3vYi0T0G2wQ6Lam/DQwSWEFCveCqyJFP1mesY6t7f3Y6K/1fW3wRbz3cMUFDlp0pAVcEXDnz5j//xi+3PQABoAeS8dnTn3X/8D2wHhZc2tqE8N70ZJo2ckz4PWYfy1vM/tLxpzlev+Djie88e39fTJZp5QIPy+QfKieXkFcdKPNDcdCSYuZdtwSfgZ7fC05rSJIpsiXJntNyZqHTGK5yxCic5wuwQd1pjJdzoI5c9XmpP/iGSX2JPoEypg5zrcRImY7SUfMtQSgoYyu3IYZ/xGGH97TiQiVDqSAg2kj0gQ3w1SxS0gSq2qkVZgC5eciZEIpGhATLJYPd7u1947vnfP/7Er3/xq6f+/FTybANXSfoFIORJf1Ebyyfep99UVsNyFeMwa3+fvjy/3P4MzDqU4IGP/AOSsOx0IgL9VAiUQHIcKgp//Zn/Fn0FJb/+7P986pHv3fCLf4aLQJuPvKHAz998kpXIFbkxxOmHnxqyPqbCyk38jnIvF5poL2IfTqMIGGg2QSGVpYZxtZokzT2p/tOQ/Sq/KlA/SBU0oGFRCjyAmU/yUoXP6+3r7du3d99b27a/8tLLv3/siT889vsX/vL8m1vf2L3rvZ6eHpkRRBdceCGLaSW9Hmxetv4Ll3yUhuuWr2e5imlyVX1x6SYa5BdWVAsVABpHBB7Af2554uaHvvXYrldoJgU+gWiOghDqKLAEtx0oxIGeDpvVFoiEtneQRU/Bk3u3tg+S5U5zTI46EtLVmOIJ7WOuYWBgoGSCjZvNR/tppplGCMy+cGaPMKjFqGlRimwPKILp7zjRDuu/9fUtdHHTJ//0JGRg35697Sfa8anCqhg8gys2fDDzBf5y4fSJKLYmSu3ioK1BkK4/AV47NmHTH935MrSBr/XTlh8Z+EkMEAMoCv9FVCXeIfPvsGfGk0PdJhmMRmFI2wKjHNKRkINXHGfzzZpkfFFSj4sw2M3krTjTYjBNMvADhCM1hEEtWhaliOi5KAWt+B85dJiuTPfUn56kS1tv37Yd1r/zTKc7aXVrzpRI7HNlVVVDQ8PK1asuuOjCTdds+vANH/7YzTfpstprej3Qfb0KX8Q4FpoUYnFST+R9VskgKRgw5aLWHgpchx+89DBLpINOWoYb8Yvtz9AcHjP3Ikl/JLiz86jNYk0VoBylTkvZeCiGhVMPbr7jx08giGoEmg2xKpR0JJC6kvr2K1TlRN0tySE0xbsKziXwrJ17KLm9RUSjUV068GDl6bqktOIPMaBLk3q9aSaO0UUpYPdh6HnTD7t/+513QAA2XrNp5aqVi5csrm9okJyYpo30Fz8H61VEE0arKWE3y4UiW8IqZWbfPkkkalbSWFJ+KYvZ1WleHEhXyf7F9qeTpYVKhUxzEw/uNV+EBW1V3a1b39jL8eqrr7KscSIpljzSl/TDTxV2JNAbeTxMk2NQG0G1WsOJp2/1EL4Ulgfuo8VM1ndRFdiX8w1ZkkLlSE1UwvTyy+n7MlkiNXBf6urrmlual61Yvnbd2qs2XnXrp2+D6Yfdv2LDB3nTn3mPsTxTozIAWxiIGB0WCUmgHcX8RAQhj+4iC53SsUY0Jxk6aRnOgeTSF1QqJPuihWQ4AQ2McNC4z+cfGBDPCM1BR4LJSJ55lkgB3OccDISdRjMOC7kbwzES0dDIjqoMfDV8F0EId2+QAfCqAvtyXtHWh6zjTZ78vkzkwPS3zWmD6b/0svUbrrryk5+69WO33IQIksuWL2ubM2fGjDQvRcgS6fVg8/KJ/uTNyy5luYppLE7fn2wxJiJx8cLXwoDKsd2SoJKAwL7GQSvvMNzJ081g5akpv3PtdaIBqRSIwb9c9WkIhuSqqMjHt+A0UBckFfCvnZZEhi0e5eXlws6u4uJiFhuncDoSsBv5nZhzLqGv+4R6PQLEwMa9ey6gpgoBlwKeAdUSqAK2kzSHYephNBo1WFXyYgP9+pDp+zJh+mHu6VrWH77xesQvWrcWph8OgfBFihQNXR16kV4PGssmxps2lteyXMU4LRLjTfleARrwWOB25Je8Tg6BqBEmyGlNBKNGlIf9pdsBsNf0TfpfvuwmWHCayeMbf+nNV9bfBNPPuxEQj4+vufLBj/wDVRFfWPzuOmyKznN+Zv/fJLsoKPBXiqxEDPAg0VoVgsIpRyazKRSaWCtmxYrlxcVFCOedt6aoqIjlCiAdCdmfLq+kMhWJRLAzXq/XbrezrGk0kbx2lmbMJnLvwZrT1h5/RJ1JI+UTZN4C7uRInDR74kHDNjMBVYfRsRHNwefLaCkeo7ZFKXQVAwDjvmDRQph+2P2077oBGro6ZFBbdcvsgmsCN5yobwDnP+2AYkhCOEb8A0gCNxd/4guP7nwFfgAse/KiFMXcyhMUiAEk4dm/ux/hgY/8wy2rNyTrB4WKATaFzfJv1zEbJ2kYAjdQMoEdo68F5kc+QMCUALfRLRhRMHPmzI0ciLCsJBQ132dM2mF5uGD9A/0QrWlHIUPw5JO1szJ+/vFMoToPOw4Ljo0FoqpNGspDEnDrFnMrR6V9HpUQOb/BvdilPAwscPbNs/NhaJErWitRMVKIkkUbRUT0fsuNWviujuGhocznPUSjqt9tlV4Pnt635edv/IGGZ/ZuYbmK6fIO/Wz/8zR0+8gEa9xqvohRFJTcf6EoPFkjvAQIAySh2JagVxv1968/899UEmDo4QrA9C9tbIMHIJIHgGL7u9tFVf7rln6Aug4oj2/96hP/TMUAm6UFiB9gm6RhCFYTacKymRO46+Bi8yOjFT5LZWVlcBF6e3pZWhm56UigN2Uq/H5/f19/VXWVkh5mXCMYKSVBt0rRVAPV2AwlAWJABxxAGGDWtVlzfAm3MURF1HmgmURVkdoQq3QIQ8KhsRMCYiB/DycDlxewRM5B1bCjveO9HbteeO55Ov34za1vsM80gWPR0MJsFA1c6e/vv+gTF1fPabMldYMQPGFnh6+udtISGX39Pbd98tbZs2axtMGw9mLWfxv0df5150M/3HGGJnUBphnOAddwRAyxP2ykB4BK/eZlF8OyJ9f6+z3up/e/eaC7HSaeZXFAA66Yfx7fiMTDtUH9jfcM8IvUL4EAiJ5a7EAsbggOBAzhiVNfX1R509IPwkNkaYMBl/biSy9hCQGoX585cyYei8O2Kp8sQ6oQ6V5gkDlkdGlSLRM77PWQf7W1tdAzmgkPl3/2Otrb8a3Zs0k/PHC7h59/+7VXvHtpUh5YsaDg7RHW9pGaAWNZaTlLFzynO0/Gr53PEuMEw6EiKzmoaIJMtvBH2d8Kp9UbmVQbi6Qb4PjN9bcdGjh9uP/UN9bf9vE/fA9JZP7p4FYk/23bI22VrYtqZv7ojUceuuGb39/yyMJakvzelkce/eg3/3SIWJYbF13y2ae+98sPf/O5o2/s7zv1z5ewjYi2CU/32aNb/3Ed2+b8araR+7Y9fmRQzwc5mWiSCTONBIxh6XPyuSVXSz5TAE+H2qlnuLF1Wc1XORAA9/Aw/uAvHYCEehj9CFRWVS1esnjuvLksrRJY9VCYtEWfOX26qrJq5Sql78tL7x/otV4FS2dMJAZ7bbRbSBd0PE6q7byXAAt+x//9SDRSCBpw9x//45n9b4rEAKDkD176jag8kthIshjgbzSp0xv5gaj2mp3JZGptbYUYeL3eocGh5DA8NMzdN5PC4MBgX/Yhy2Ul7Q9+HT4N9pkXAyAaDhufVDslb8MWzTaQDPSdmnR62vsTK6q02Zf5QkYXB5EMKFIpBrh7c9ASi2eng3sPPp2O8Jdnn9u+bTudi4BPHXYHnWew6ZpNdIZBJmKgua0pvX/whUs+CiWg8faOjt/85jeq/IPTx18cCbLFR3+2/3m9ljhFLQZKEOWqDhYz8RKEo+tQ5b9z7Wb6RgS+NYl+JGI21+tAXQpuStrTQnkQigH+ppoVaXT7tfkHaTFqemuHXqDGJLo9UkHawW2kbxn+Aap48A+ox4Daz7Nvvfq0W5F/AGzcyqbULiSOjZT2vo/8A0pyHRk4dvSahsVDHvJCYm1zokp7m7488QQq6ZPsslr/gPQhqx+cg6q0wvtcAzDNb23b3nmmk6UFVFRW1NXXV1ZUzGhuLi0tZbkZg1/kuw3U+gdTVQ8A6UOzJuAixHETmBMiSQBXzF9z3dKLYfEhCT946WF+cQseyMZXuFFJUAs4EKJ5ZwrFAKTVA9wQUH6Hg729WRUwrPma2kMqGoqdaOqk79y5s6GhgTZ/oaYGPXj+7VcVtheJeH/qAYjFY5Hx8e81xeU1RWW9r+wtSzhRhaSZ+QJPevXli4vqK7PUcJS5HpCeGJVrWQutZzbAs99+glkeaBU3yqiyDowPM7WQvg7dHnAy9k/Q6qh/e1H36ED7wFkaukf6Wa5iAtEwNIAGxFmuHsQTxC3A1bcYE6GoEe6CZfLRwL5/+Y//gb9kvNC1n0eAQixtbEOATjzwkX+gkw/4YuxrHMrFQAll5WX9fennKEoSy8l6FZKgnqX8TsVdGAqF3MPDxS4yeYJ3wMllGl/CWlXI8JxPXYiyWiy0intJ6/JvrL9tZrn02/lzzy1Lrrhn3c0soTeo3bOYJqwWq1oxyMGAIuG6FB+75SY644wXA31re/AsM1xjI/3pe3rvxPiip/dtZbmK6faJxxfpCPwBSAIiVjMnCVaJCcz/ueUJ+uobyMBX1t9EheHOtdfBb0DmD176DT5lRcfRVwxAU9OMrrNdmic9ihrocwnpulb8jB09egQ3Ou8G0aFQ2G/UjjWE/GhgYQBJIFMTDIY3Tu39/pZHTo9orEzozmMHXrtv2+MsoTdq23mE4EYFLKEMbjxRPisdGuZOy4Bj0WxheNTJaQECc0OGq5JXa5GpALDgyZKAuv8dj/7w68/+92O7XuEDksgUdSYD3cUAwD+oqq7at3dfJpLAYjlH4S0LwRsaHGoRTJ6AW4N7FI+43awlSK5g+P6Bdh3VFJcvrG0tsua5pYinpbRufnUzSxQMGgwrbs7cP1M7d+zs6+1zc7OO4Ayp7feWAfXFzMUApNeD82YuunLRRTQgznIVU2F3XdWyioZKR7YWY6ITmHk7LjlDeH93+6M7X+ZDcncCgBiQxSd0FQPKvPnzXa7iHe+8C7sZDKruG8T1zmNdRv7GhQxA6rq7uuAIi/pI8tXSdW4ASWgorVpc21rM9dUXAs1ltQuqWlgiC2ioAxDhVLkoBZ6mHAwooixYuJDFDIYjhw6/8tLL9D0HLzz3/F9ffW33e7uPHzve25Npr2pYp2nVeehPLraK3+CEPUjuDdaAsGofjRGRYB8og4oBmfFvJhPflItB2v5kntGR0a6uszCgLH1OUOxyVVdXNTY1Ja+QiuN9cedW5eOLhLzf5h/IYNx+pt5cXgj9yYHVNdkbXwTCk19bn7Y/WduAomz3IYuAQ9DZ2YkfdQ8Pc3/d2OHkzhIcSFVVVWVVpaukBP9XVlUp1LlUh4MfOdt5trysbIqNL4JCkMkEUnqAvVOlE1QSwjEyW437rtIbxci9WpyKAb6u8B3I0A9c2EB/mvloOSPHg1Phoso/VyI9MAHBpBt5zMeH7SfH8jW2SgPBUFCkB7gFQ5FwsZVbhkugB76IocRmTJisuNNY0RRsXrBu8/x1999/34h7rBD04K67754/f/7tT9/HsvRGrR4I50IqJBwJ59dtxQ6HAiGv1zM0ROSht5uYxJ4kF2Fm68wrNnyQJVITiZLFxFhCAFXKkx0dZfrqQWN5jdPK3NXgkGd49ylVerB7/x9ePcPu4x39xyRfgQALnqqx2GRSV1UHFhMZhxqKqq00EGxmFY4FxAC7hx+KD/mIWzEO9ODGhetXrVZ6DXQE1ja5kp5V5Aek9vX2vbRv24ujrJMGxl3FMsj+iFHVEp35hvRclU407ODJwsmxW8gN6Y+gssaUAPKAm4VMvrMajWYrbm/2BSmqi8oQOl/YWRp3nPPjTQGxbor14LIrLldbXUANRsMqDjqCGlGqShu0YXhoyOPxAkRaZs5MOyUNSpCqF4QqZUd7uyo9SF9Z6x6ZGG/aNSpelz8tSt6Hg1p8NEWgjT940JSDupifm8AsWm5ISVArBpEYGdQkEp4+//DI2AiqxiydQ1Bbz3DAmVrk+/G6urpOhrQ2juHMJq1vU8hBRgx43xe1r2CUzLkzk/xEIhbB7c0+kwJiML+6+f3Tn2xU7D4CtWJARuDkVQxQRZXx4FGdr29ogAasXLUSnkFaMZDpEtewfBNFxdnPHjZTwiTVGWI0kLcdaJAEskbC5FdyKgzKxQDPM8QAO0a6sgWtUog5LIb3Bo8cOngwL5KAm17k82UV3OKSdx7qYceOHj090ns0qG7BvnMAIgbRcJF1khig1ov/kYn6Cn3BAG4hXwQCHiGtjtwXk6kqKl1Q1VI07qDnnWz3J2cPXJTcDyiioOIPSAOOfs255HBSdImbTdrnNOSn/0A0cQx1+VDUKLlMNO0PoJKgtuEoS+DptZjJbCnU8iAGiPD9yVQMcEbhMbSWNK6sXlBRWp7jBhyA3dDSWJYB8SQF8nm9ZwKDL44cDCUmamTq2oumJkwMLOQe4MXAZDTCkYJzj9sYpwr5EAPcKrjnI3HSjoRPA1GT+CSOY9reWWcuez/0J5MGEEEVXr69aMOVV7JEOshF0WkEjlo6TrRv37YdkdKS0qrqKu5V+PXK+4pTkWqNDZPRJNyy2vaiPOiBmbw6RnwkXC2bxUUUlCQkiwGgekDFAEdh4kwxVwe0VDq0LEsCT1BJlxcsDu0Dl7oxtGPnXquS4TbHDKFR8Uvezn09SCUGfMUwEg07zCQ3wBk9uAs4z8FYSkl4v/UnxycvWaGXHkAMcjmgSMgrL73c19uH+ploQJGrxMWNJtIiD6m6xJNHW00BPaBxVRSIJEiKAYAeGMNRKgYAegAxED3YqohxM7lYQgC9ziYT9/od7tXnIMS9ekEXYJ6wNaoHuKlwa2DDMU3PUcJmjpeLFx4/t/UgrRhQUMbJvTMDZQAvCQ6zwW61hmIm4dVcUN0yv7p5++MvWEJkCUyWmyfwpK/68OVVLfVPH9nGsvQmG3ogWtInx+zbu2//nn1p/XXl8pBqQBHAnSZaTUB/PZhE/t5/kHdJSCUGAHrgjEf1EgMg0gPcShAbmAlsFtUCnAr8CjXcIEM9wI1qJ/MtSJzXA3osAFumR4qjRqZkm54k7zc9UCgGFJEkUF2Hx4CI3WoJxcz8BX2/6QFOY0gwYi1zPYiSRRwmGqByj8lo8ng8w0PDvT09Q0PDw0OKhlekkgfSniY7oIglxtF/fFGBAKsEGYBRRgSSAJuYS/BzKcWAkwodxSAZGGhsU36z+GloBv6qBXcAvoXviSYJ8li4N4PiAPFX1PEjx+R6yrmNKjEANostECMNpBBgwDsK8BJCkajdHOOHX0MMNs9fV12k22LIGbKuZQn2hyWygL79XrCe+RUDPFhWqxWWfe68uRdfesmHb/jwJz9166ZrNq1cvaqhoUHGCfB6vKdPnd69673nn3v+dw//9vePP/HaK6++t+u9s2fPhqXebQAlkBzWoZb0/sF5MxdVFLOXn7h7Bw68vkOVf7B99/89fNhHk92+oQyXOIVdhvFFjQERDTOQtYHfggKlEoMiWyIeiCbcAR3FQOQfwFIEIkSQgKR/QFuQAJ4mJKk9Ugi+iO0ItybyD2JxTpA45wBnIBJnHoM88Qpnsmifk/6BWjHgCUfCNvLWVXLb4NziKmML8BJsJoPTZgnHzbw3Vjj9yWPLKyx12RWnIPdiL0om/gG5LnnqQ+ax2+zyCgd3AU4DXAcADWC5KeC7QFwuV7GruK6+vqKiorKyoqSkNJW0nJv9B0JEkhCJZ1cSYHnp8CdIgrQYcNfIFI76R6X9OA2Qeo2gxZMu7katAww0HaoIIwKHACCCPYHJhjFCDuKhmIoWJGwZ3xJuDRG+zwDWLRwnPgQysUkqCfiLn5CjyGZwSMxLMJtM59grwHgxADDlysWAIikJuI44ycWQhIR509z3V38yICNnWDQjPQiFsB3Fj0EWkGzAkQHq1dPdMzw83NtN5IHljiPTH44bg7xbbdUqV4m4kf/c1wPASwLvVmeVcFyi04KKASI4f9AM3/hrnHVB9JIsbB+WgiwBjUp6gskDXfkAIAIQp0NW8KmwopoWSAu+K9waIrycYCMwVYDuAw4W/gF+An9pviTKDeKURigGOOH0nKk9dpEkQNctXBx/nVbznKpZsytbCqf/YPl1l1Y21z956I3sXV/hkhWa9SCPA4ooUALoAUtoAq5DT08v97fHM+ZJpW38AjBwETZds6myqoomKfr3H+w8ffDlw2/TgDjLVcxw0PPymd00uEMelpsZsMuwv0mtEdlCRgxgo2FPAxE9xSAZGGL8uox9x27gqXFaSACw2vgKLHgm4NsI1BcB+HWYPCgNcuAc4C/1JySJw1Dm9u3kuUdSDOh7C7ioUlA+TN7FTc4n3AKqCriOuKb+cMwdGD4+dMYfKYiXZYLTI72H+0/h+vJvcCtAItl/y408JpMOLzaAZV+8ZPHFl15yw0du/OgtHyMv0lmxnH+RDkXYGAUJfOetd1hCK+n1YMfpQy8feosGxFmuYpSsV6EBVGAhCaK322cp+MPSYhCJEU3SZWVWefCLcAtSAdMMYFA8YeIiQAaIecpMEnC8uNPo1x1msin8ilpJKGSTkSEQg2hMQgysmuYeQhKicSOUAHqAU4oI3C9EcMJX1C/96tpbWspqWdF8c+uKq76x/jZEYoKXeuqL1WyxWa00II5TKhlY6SRiHCyRD2CjdXSeSNNxLIq6f3NL87LlyzZcdeUnP3Xr1ddes+a8NaRzgtiGCZJbmdSSXg8KFjwtqEnlIAjNvVAM7BaJlzZnAxgIWvFPBm6BRWCXqQ9Behe4CWWaJQGVK2rmEHAGAPXGhJJA2zRkJAEmI5rXJzNLUDGgVyRzMaDAgsTIal1MZRHBlUXkmSNbP/Wn7x0bPM3K5Zvvb3nk43/4Ho1n6frCnpqMZB1cEvAnBaz0ZOL5eMuNEDIjTD8xwJ0meTgVlRWLlyyprq5maQEKx7OmIr0ebF6+/guXfJSGzcsuZbmKaSyu+uLSTTQgznKnLA5uZnUuxQDgR3D7Jz8C9Ndhkni7DHuNTJgqWnXNSBI40w+w8Vic7ABkBpviJQGVWbgjpJmb68SWBFWbnE4FisWNvlD60O819njkwoDPOOQ3jE0MdOHhxQDnVi8xoPCSQK8mPDDE189a/v8uuW1GWaG8P/nWFVd+k/MPKLm+vrIQ65mrt9ykAi5NKq1SCw5HcmgpgFKmekVVqq8oJL0eNJbVtNXMoKGxXLXf6rTY2soaaEAcObApxdaEMOABmBI4x9c0zaUYAFgfWF4YoGRw6lCjFHoJMFKeMOkWxnmGTdEmCbSjXmj6sQVoTDG3KT7fwUkC6ZG2ppSESDSKO5slsg0uiTeUJvR7zTt6nPuH5cLuQfuOPtOBfrbZcbhGkqyIAYVKAraMq0nfmtA1NtI+fDoQkVCmvHB6pO/QwCRnBde3QCQhHMnz6FKLxSKaHpwJ0DbJw6FzGlhCb/JgifEsCVvnYVysJiIJBR7yJQYAPyVpbVF/xNmDOSYDfiY3HKFGTyFmS7Ek4Idg4rkrQjaLb1DTj3xEvFzNg9Z+aD6gkoBMGUkgD2rOJCEtsQTMbl1tg3yoqBD7srB6sVgUh5klMaBwrQ1EEugpHfCNHug/VWj9ySwxDiQhv/23IO/3GO4Ei37vbpLpEpd3QWTmuCkhvR78/I0/fPVP/4G/CM/s3cJyFdPlHfrZ/udp6PaRti1cNL5pHiESN8JUid5DUIABew4xILMQIjkVAwDrQCeLCaHGGrYYn9L9QWSSJHANRy4bOeEKJYGaIRRDIN6AbZI3gC0A2r2MH1IuCdiB/LbqgmqX/frlTQgXz5ZodU1LbsSAIpSED7Yt/38X39ZcQO1FrD9ZRH4baoj1lFrfLWfINOBogLTCpeiYsVqsI253b0/PO2+9Ldl7LBpvqhal/oHm9+EEY+H20R4aJCcn2zhTW/jAMtIpadCwHIPauhCqBLD7vH2HkYKBhvkICfp4YVD8Ua49R3HDETXxuB6I+GCPJnsDNE4P38Z1L6Mk8kFaScj7CNTqYvtH1iz6zIaPbjxvPctSTC7FgMJLwtOHt9751PeOFGR/spA8PsO4NqmsZ27QtwGH3GqCgVt9vX0dJ9r37d33yksvP//sXx7+9W+e+vNTzz/3/MEDEkP/GxomzQzTQHo9aCyf6D9oKqthuYpxmMX9ByJgv4TNR4UcvJMHnuYMGF9qdgHp2uUWNxXad5h7gBo9lEDYcITCvHoRQ6ZYEvAT8C2AjWuMwld4qcDGhd3LQkmAGgEZScjvCFSrrbSibm1JxWKWVkbuxYBCJWFN0/KvfeC2lkLtT847eR9QBOQbcJTj9Xh7unve27Vr546dsP6/f+yJ3z38W0S2b9u+b89eCMOIe4QVlcJms1186SUsoZX0erB52cT4ouuWq65bNbnE44tg3eyWiQBow1HhB9jEvIDfpfVxCpK4+4T2HTmoznvCRCeQxEe8JIAY50w4rSSSShJoBv0KNf30DsdfflN8vqh7mZcEXM0gVaYUqgPbCl84nohnL+jbiMyLAa4+zjDdtIVMPc2uGFAgCTA0OW6cnBIUc6+fwrXO/4Aii1VbH3JvTw9Zse693a+98uoLzz3/61/86vePP/GX557bu2fvkUOHYf1FI4VMqd8kWsmtl/exW25KXq9CLVqOJENgVoQEc7Im3ZSG2ne+CoLqOSyyi/O1RPYdScRRMiBoOApEyAAkfMtqEjsWIM7pHEriL76Cj7BxavpxoVAKppC/Qnw+IsLuZeSQfK7HQl4SorFYOBLJUkBVUcfhTFAXXgyC444NlEDHbsO0HHd3/enQGwO+PLx4VZI3Tu3908GtLJEPyoLhJT3Dy7sGEU81AidncIuKpl8mAZYd1v/ggYOw/jD9sPuw/s8/9zyUYPeu96AKtCcA9xstnwwvBjD9DQ0NK1evuuCiCzdds+ljN990+513fPiGD8MzyLAnmZJeD7pHJ96n3z0iHoGXlkBU3H+ApysUnQgwVdPIA2MNE0ftNWxsKMY6BmCLcTKF9h3mHpmouSPwDUd4YnCS8S3UNJMlgTflSEIzEMj6SILZyNQbKLERBUKEz8cWAO1eRnmRJAh/YopCj1EkBubcrsf3gZal37j01pnlhd6fnBsaxvyLe4ZLg6ziLGNAcwDpQ1awKMXxY8d/9/BvYf3feettWH+Yfsl1TJMrMXX1dWRO8orll1x6KUz/Jz91KzX9G6/ZtHLVysVLFtc3NGTuEIiYMu/DeV8hWs+OjBHirLDdwq1kx9XQAawVzDdsPSIwXsiHsabAKCMHhkxo0ZBJR5EiB5Za+BVk8hspthKxQRmAYsjHr0NO8HXoEH6Rz8e38OvYJsAXAb8dbAFSIdqrbGOMxEzuAKx2cnvugrrS796woWH2TXv27L7nnntE93AywVCwP+aOXVifRzEA1UVlCJ0v7CyNOwphPbvyS+Y76spFUxAoDpv+L/3n30wOmke8ze4JSzrvQ7dl3lyuGdxgdmXHC4dAfhkJ1OsrKiuKiouKXa6Kigqa5Cv7ZIn4DBonz9n34byf8YZJ1R52Fu4UjVBrR5qAzKRjAAZXVB9HDqL4C3M80XAUJZuCgUOO6Cuw2ChJcwBMPxwCOAp0C7CuiAOF3cvYzjngJeBU51cMAMRgfnVzkTXPSsAzs7x+YW0rS+SQSn9IKAb5RdWiFPWNEzUPVOcbGhpQtV+5ehWq/Aio8n/81k9cceUHL1q3dtnyZXAI4BbwYoBbLhMx0EB6PThv5qIrF11EA+IsVzEVdtdVLatoqHTo7N28f4BhSpYE1NlpxwBssajhKMq1/8CmI0c0VS3CuQsykoAItoxitOLPSwLAX35TfL5k9zIvCdg9/iemKPkSA1BVVLqgqqXIqn/VWxszy+sW1cxkiRwya2iMxQoA2GjlA4pWrlr54Rs+jADT/7Gbb9p4zaYLLroQmfUNDQgyXeL6zmlQSHo9WDNz8ZULL6QBcZarmEpHyZUtK2mosJew3GnUIykJtGMAphlQK0yNL6ywj5t/gAgsOD5SJQkw8chAgDeQYfcydg9fwU/g56YieRQDsO3MgR9ve6xzVHW/XZb47Z6Xv7flEZbIFbXegD06qZtxeYuWSYW6QMYTqHzHXyX3JmSWmEyqLnG95jTE8RCqYbq9aCpBJaHYxrkF45IAYPStnOGG5eXr47DRiOMv4sQuC0YcgbSSQM03XARhAxHvDch3L1vHu5fpzmBvsWPYB2xK35BtjcmvGIDNC9b9evM986ubWTrffGP9bY9+9JsskStqPQEW45hVUzqjMj8tDaQBR7/RZeFIypf26DKngYztVrm0VPrn6el9W+hiFXqtVzFNWswmapwlgBGn1W2hJCAe4fp1oQowxLQA3QTsPsWuUhKQiRsSBQC9M6npx6eIkNFNgnzf+FBp/DSgi2OjJO2XpnuLgD3UOXA7kCXgsOdXDAD8g/u2PX6mgPyDl76fc/+AH1BEgR6wWG7RtwFHZo0NzXMahIjmOSsk/a92j0yMN83GehXTJIOqAZmLxFJihJIAEAGhGDHWUAXYdL4Arb+T5U4jJCeVJMCwopikl0A3XpSue5mXEGwcPgG2gW3STfE7gxzdycY2C4rp/mRRS1Gp0+a06VZDV47ui1IAlpiMwjkN8iQSCQ1iAPR5nnp6ujtOnuTDnj27vd5CGQwwRVEoCfzkL1oSdhlWGDYaRpmXBJpPvyIpCTDlMpKAiJLuZVoeiLqXAX6aeDNcW5bu4dxmuj/ZMVkPrHmqAujSgEORWWND4ZyGtITDGpf+1uHk2my2V1577ZHf/ZYPX/3qV3/0ox+yj6fRihJJoGN4AJUE+AfIxCNDbbRQEgAvCaIRR9TEy0iCwu5lWh6fIgi7lwH0AKKSjXBuM92f7LNNso+RfFQBdGnAocgMKCLDWPWYY6xZDIAO89GSCYaCjY31Dzzw4PR8tMzBBeJe9CENbDosO538Rc0xBYYb+ZAKK/fyBmqmKfgKMmGgrVz/M0SCQir13AQ3RGDH+a/ApFOFQBIZZiMZuYQ4LZ8sBrQ84L+SySOMr9NmMSXoOx+tLzYaX5vnjtzNC9Ztnr/u/vvvG3GPFcJ8tLvuvnv+/PmSS5xmYz6aIRAxxuNXHe9iSY6rl7eUOKxvOdeEDXnu3ZkSXHjhhYuXLGGJdEzrwRRAuSTExqdQweLT6j+MKW3VyVwSaE6xVTxLGXcQ6unwVPh8XkKoKc/ExcdGhHsoz7mnBwuqW+ZXN29//AVLyFAIerD8uksrm+sllzDKih5wrD070OTxs4TBsGRGxYVt0i9qHPKGntw16XU9r8xqGHEorXR/9PCkedcbFjfNrJYeyHTgrPvt9gmnLWI2PTVP51vFe+bsopKGR3/wEEvnhPw0xk2jClg3mVZF2gpEG45QeacygBzYYnxk46pQSFIDTUF+hFsUT23DEXKAqu7lDNt7RXvIg/2CCy+GvIRdrATTTHW6S5wsxgFbfLxXYoE/bzDyxtFJK0P4rBblYgBOlU2y/luP9kBgWEJAz4j/vdNkQT0e0RenLgXnH7jsRV++/Ob60vy/ef/3u15988Rulsg38UQ8LLu0L4w7gi9MTDbvJQDqKMD6A1VeAr0vJL0EfAVlEPARoOXxKX4Xf6kY0PJUjTSDLWOfsfPYT7gg1NugwPjbkjUyHDO6fSw+men2oszJQ3vROJtOdBVHJjmJDeVFS5oqaP0dVvv0kPfA2eEw7mMBOxqrVFlq/AR+iCXGgTsyt66sykWODkpwvG/sWJIaPT+nCdrDEjqRF/+g4PTg9rXXeUN+2GKWzhMNZdU/3Pz3n3nkOyydb9LqAUCd3RMmVtjFRXiyIQm0TQlfQTaVB1oeOfiJALcd/lcyge4hlAa/KOw91qwHJ04cv/2O21muANzVQoNbIHpAMW3vrDOXFYIejC4rj1VK70ZW9aDJ4197Vt1g94Eix5aZqteFXdHnnjusbm2MQzXlB6vLWEI/pvWAAD3Y3XkUgSZdRuNFdlObxdRmNe4Lx/dG4vhLP0qmzmxcaze3WYzFRmNHNP5yMNYHQzKZZTbTchiY1PA/8dObvnbXE/fTzLyjXA+EER6FkgCbC0mgn8hLAj5FEhlkvVWu24CWx6cUfARnhW4qE8wm0jylox6wtMGw/c03Wcxg+N9f/dLnCxSsHhj39Bo78/8KhITFFDq/Po7bS4qs6gFYPDi6aEDuBWFCRhy2LS11EU2NlRtO9pRPngEnA/wPeCEsoSt50QPzvffey6IcPp/vV39+qKiy0iw58ikcs7ojruI0yxBFY9GSEtfGjRujkbGT3Xve7FZxK69snt87NoSAOGTgZ1X29Q7zQqsJth6m/EqHebnN9FYonny5ri+y/KDctsZGxKPZQgojB3Kyc7J+YAufLLbg01ShP5bYxxnOTUvWvXBwO/1W3oHtjaV7Y7jdTMy6MMJDbHeCtfgj2C2sag8QgSlnfQlmog3IAfgUEb7BBxHhVyAqEAn4ATSfagMiEBUAUYFOUJ8jQ2wmmH6ycey/UNwhPEaTkTssQYjFjQFp1awutl++qK2kYmKgReeZiWrKrt3vRSJR4VqSuId9iVCiWad6XyRubB82DgUUBZSHtAqpdyXmV99z+11VK2cb5lf/+Ev/8lTiKJLrPrh+sNmK5JGqwNoN6zdft/lvzp5f3XOfKInvzl+38p7bv4Rv0aRwI/w2Hw/t+3+fvfviDZcONxv+9UvfOl41et7lZCNvOU//8p5/Q7KrzhBP3QKY7dcEob4P+17vC7J0ajIRA9BZWuyIxstD6SUhe2IAwqNjNfaSG6/4MEvnhMLVA5j1+ypsLr7COQ6EYY3d/JfAJIMH0/95l8TtCCERSQLkBEafJaSAGJx7egAUSgIeIoWSgGLIwfVBBJtFBJkk30zEgAx1FaiLPFAXlMTf5ED3ChHiIgj0AFGcEFGIR6MJfxj/85w3c9HixrbZ1TPm1dUsaCxTpQc2u/WSC9bNKWugwR3yaJtgv7JqzipTU9+uo5Uxpytolg+2sdiCmpkbV1y6e6idfZ/HaOgcHRj0j/qjoaODnUieGevvHO2nyUAkNBgYJTMVjIbk5JB/DEn6LfwVboRu0xPy07cadI72dXv6xkKhE8OnR4PBAf8okvGE8cTQ6bFQELdQKiT1oL6o8mOzLsEZoGGOpdJ+6kyDP86Hkkhifv3cuZUzZ5XUIzQ4K8/6UrYLDTvt3SVFpeGoqC+BBxpwtLrs7abqOG5oreC7+BW/zVIejNhSPHQ+q2VnY9WRLDQT8eRFDwq3vej+CtsyGAlIVvMy+3kfMboqY537Qtt+mwiTxa1+54v+1sfuCSjEI1XMV7Ut32RZeBki0cOvh/c+TzO/OBxuHzdLtxZb4B8gYrQ57Zd9zlw3F/FY3/HQ6/8r2vK51F7EgzMqbDhCBT82fsMLG45wU/i5GWeANgTR20SyLwFfQRkEfAT48pAEJ/dmN35TktDy2A262WSwn0B+IxQ63pQlOO6+/JY5taTNx2oebagaVdVe5HIVff7v/o6lDYaf7X++fVTuxSapuKxxxaxQ6VNP/rGstJxlpQa/u3DRovXrr/jWrodZVk4Ijy+nQxvo/FHyl95F9OpAmPnxxJJIthfh2C9rWM4SBsPZ9gPHD7zNEuOsXHd1efWESXno2EsnPb0skYLyYLh11Cds1YGBHii2d7mKNLsFkjR5/I2egFB+4HwMFNm7SopYOmtMjzedAM4BE4P6uY7LPgcxIPHmZY4rv8x9brgINdJx1o7HIQbW5Ztg6BEQsZ13I83f4JBwcnkxAIjwWz63gRIEo8TuA0gknnkaB8jHp7Q+DitPbD2XDzMNW4wcAOOOfFhwEh8fhEq9BGRCUaj/QcvjrENvhJtKhooB9gR1fzzIyQFigC1gO2nFoGDZPXjihc53WUIBu4dOwCayxLlFVKcVzGCU99RVbJlZxwc6lEhfMQCw+9iy8IfwuzkQg3xRoHpQPL5flrYLWYzDVDkDCoFIm2XCwlDlANQz4LGOJ9usYnNEtjMuBhTkILDEOY1QEhCnbgEF+QgaJAFWm/6l2pAsCc6krl8KPkJ51DohJPibHCAV2FQq1yEt75zc/8KBbQjvnjzAshQzHPK8fGY3H9whD/tAJSur52xsPp8lFLCyas5n5l3FEtNMk0MKVA94UNNnsWn0Q0YS6EdqJQGf4qMQV4unXxFJAvUeUoFP4R+EktYmokGzGIB3Th6geoAIy1KMO+h96cx7fBgOalyi8ZSnF1V+llAAyr/es5cl3t8YPUGj2//+DAZPKKNbXxMFqge+8WbKyOHXWYwj4R2O9R5HRDiQtGO8byDaPqlpMtr+Do20R8SnNT58FoElOLBlUc65je6SgBy6eCr/FZEkwHtIJQmkschIWofOScptrgYnafBUSLndNculeuD81MVVlnqIDh7tcFQyWIKRsjF/w+BYc/9I5Yiv2BsUFdAr2P0h/BB+BQERJEUFshXGzVouKdBHsD0apxYf1j+07Xe0pzfWdzy45X+5zw2v0FU9OV4ej4d3/InXD4hBeMcfaXx78mgbgyG0/Xe8AEAM+C2/fygEScBXAPJxtekyGMqDyzaxwwBxl5X8LgLUhXL35bc8ePM9CHddfjPLUkxbWcO/feAOPiDJPlAJ7Ht9kRo9sLlaS+pZ4n2ARfG76Sm13sCSnuHzT/ct7hmeNTTW7PYu6HMv7xo8/3R/84jXolOdGtvB1lZ3DiDgh/ArCIjQHOwDK3duUbhVsp942HAa1Pr9j3/N98iXgi89QC14ezTxpH/CxEM5+CQkASUR+JFIUA7JKWzYVOC5f6XB/+dvva+cA54cSwIZvDRZEvApvwP4VFVA/QmbclomOp+xNfw0gsB7zD+F0F7Uag1+1NUvE24uHbylbAjh5tKhG13sL5JXFI8VG/NQUZUENhpKMGdgVPTGNIolHofJXqWHsS4LhiEw2JrobTwUZGIflncNFaMWf25RuHoAI/6TsYg36cGGGHxnNOylFctx/tsbESoED8QAG2EJKSAD708l4FEiCTjZukgCthxKkgT6K6jR44dUBXgVUAX8NBwLOlAKOwAlKCgxAKjsr6yawxIKQHnhGM0MKTbF7q3suK/q+EddfTKB14ObSoducLG/SH65qvendR0tVoll3ZSwp/vIlo6dfNg92nXKFufDWWt8xJw45e7mw56eoyfd3ezLk4Hxha2XVAIhUAUYa1TtWVo9kBP4AZJKIKQ4HEGxc0wSpsB6FRuc5rV2YqK8ccP2UEzYUiSizWLa4DDT0UTtkcT2sIRnsOx9uV5FWqiNhmmmcRhoGqdJfASbDoOOm4VYfC6fGGLZeQmQBAgDCvgmz0vAlu1wOzgZ0Ax+haoCfpS/g+OhWGRQum64qKHshx/dmJf1KmaV1Jd7TAdfeFPJDN54PN64bO7MNUte797DsjKDq/73ReqvCs+4IWFWPVDS4t5lb//fgVDkHwZnaZh/YAxGDClmjKciUergu5JItypncOEZoMKe1kYLOVFT1u9SPRoFngGsPEsoIGoyHWyo9GXhFZ6e3r5FM2Y9+qPfsHROyJYeVFWavv1P18dioX3dp9TqwfH+zrwvLOqyF/3mU9/+yP/+E0vnm2zrAdAgCdT0U2QkITpu+vWVBAAXge8qgA0xhif0QKgTII96kF/gHCwor/Yv/T5Lq8fa+5L99O++MjDrdMiqVg9wGYxjQVZrUILZRPRgHF4PFvSNVPrFK1XUlRWVOUnfgz8c7Rv1i16dBku9t6kqZEm5wEYykqpjNZvwQ0WcxR8NhPFDNJ/HZ7Pih1hCP84pPfCYPM1XkQH+vkj8jCf9kiM8c2ub775MdddfNnjh4PbnD2xjiXyTAz0AuZcE4U9kCNnDeMwwPj+ZdjA0VdTSl9G3Vtn/fsNqVXowagw0bFjB0gZDt29I23oV+QV6ML+6JbDw6yytHvPYYefhH35/uHmX36laDwAudjgGQ8OSFNwlye16ZmPCyd0041A9KA5HYaZZFkep07a8pRp/WZrjeO/Isd5JC97BP4CXwBIKaBjzzxqatLjpjErXoqZK4UuboTp7zwyKVEGbLyLPOaUH50bdqnDIjR6A3EuCPChDv6WEwlyvIr/kXw8ygOrBnIFRYRex02a5eH6j5Iv1Tw6MHeqa1Nrz7sy6KG44ZazuHBA6BxADqA5LTObtE71D3olqbjZchILQA5/Pt+yj51UtnGcvlVq0zhs2vivd2yMiUe9KnNfEEtNkTM70AORSEuimUoFPLdyKeAoloXD04LJG4lic8vS2ltTvHjyxsnrOSMg7EvbSJCK0mEL4VYAeOvYSInQ0KuJ0GjN+5dep17c4B/RAZKYvnFNf5XKErK64UaLVfufJ/qhgL09WlYjeyJ8KSzy+oG+Se7F6Vq2k6gB/OLrvzCSX5UCDiiHFSvAPD7fWNHzjzv/H0lqpqqpS/pp+sR6Ats1LqpYtspWVsvQ0BUAu9QDkRhKwHRnwRZQJc+vr4QHHt8R3ahLJenDBrCWVxaTFoL7UsHlNsyo9CFtjaz58BUsbDDv6jymdouyP3N5Mvrh76MTKqjkvdL67sfn8Xv9wT2CYJHt39VilX9KQiqmrB/VFlZtmnMcSCnCHvS907gjG2O1L9WDtyYnl7WCgr1zagsjx+kvKytOvD5hVcIsaTXKDUySh6wYqxMjBEuoJBgILFy5cuWoVS6djWg+mBjnWA6CvJEAJUNMXSUJa8Cv4LUiCLd3impRkPeDJZX+y8dhQydmgJcUrr70+T3hjG0soY+rqgWh9UyXguPj1TaEHZWN+4YAfeAbwDxCBHlx86SU0M1/YbXa1xjoWi0WiaR5kHqPBaLdn5HV1tLeXlZW93/VgYXnLRbULWULA6z170y6lW5jkXg9AJpKAqj1yeEkAKK9BEpwW8hNmqMuU0oN6t1W4NSF9/T3+K2eyhCymWMIWIMe8grw8gEgI6s6I0NnOiG9sJlVveB4vnN0RtZmiNgnbVCB68NRTf9yz5z2aKcnnP39XfT3pmBTpQbE3KOxMLhw9sFqsZrOKwUsAnkE4ovTJhBjYbLZMnAOgVg9UOztTAjwwqEMlhwulRGKaVMD6w2rD9NM4ra1T6EfE6HOSQFqEuHyqARSqDShDQXnIAMQAkgBhwNaUwMuJNm5Ydfndl9+CcMPKy1mWYhpdlV9cuokPjcXZehNWKirOhhvawzNOxQZ3HX3l5ecRLIcH9v/tbT5OI8hpOhmtPyweB1lQjIykedVlMCg9ClE0tH8soEdNJ2MsZotaMUDNO5KuSifEYrFkKAYaODf1INVyYHy75NQjM7OoGc2SwLcUSUpCJGmWsiT4HpSD/7oGZpTXzaltRmiqqGVZinGa7W1lDXxwWtQts5M5lnC8rKy8srIqbaiqqoYzwb52ziGcQxCJxc8Oa597rAsmk0n4Kj2FwDOYPCVGDg16I0k8qflHnnNTD1IxElbXj1c4qL2uOpINSbBKrWUkgv8iIvihtI1F05yrDBdNank71DUsmnqWS0xGk03lAnwgHA4nt8ynwmwya9CbZKLRaDyuYkY3eH/pgQRjIeOxofShN89VkvzCSwIew5xJAv8VbCSkrLMhmT/tfu2nf30c4c/v/ZVlKabLN/Sz/c/zods3xD6YJrd0l01aZgNi8OZRRaPedQeVE6tV0ehVIZFoJJ5QKmDQGw0/kUwsFovGVD8256YexIbejnX/JTkkxo6xEpSxkOXtrtohc73bKh/sewaMnaPsW+OsrJpzWeMK/KWvAqeh3DYxjw9x0p9Wt1BYAIF9PKWgdh+2W1IS/NzqdTDcekmCmWsmQhl8HRtRWrNKosvdf7z/DELXSD/LUkwwGm4f7eHDVJycrAsmP1lvxp9IYyuC4VBy4E1SebqxoQ6HdPc7CFnMPaXFLMERyNMqcrDUatv0A4HA8aPHOk60u4fdLCs12vQmGfgicA5YQg1ZGV9UX1TpNE9yqQKxcK9fxSpRGfIpV3SmRcKGbA2atwbHb2tODOoqapV4f/F4vK+/J7S4MtHMpr/jGL+48FoaFxKMhX+45zEaRwE6FETEY+2vHx5RsaYTiCpQe93HFyVDbTesOew14sJfsZtJJj4qtk4aC0SVAA8RdSC8gq9gUxYT6UuwJa1lhE0VWYhaIAI9UIg9FrOMkvFF+CLVobysVwGHEnWIzMcX1R0PNFjLFU4m6u3tObNKYk2BT5f2bCoaDM3+XKTmYpalBlNo0Hn4B/7A8Of65ygZ4iViQ/PqDTNWs4QyROOL6PpFlniCW0x04laY96Hbcjy+SNuAoq1btrSfaGdpXNP6uorKysqKCvytqKxguePAFpnUT2hIJhQK0b6KM6dPV1VW5Xm86XdXf4rFBHxr18Msln2U6IHl5Q6FYkChkhBc22goJePqUM1P9ZJb/kglzwOYunoAYLth+mEaYK+T9QC2G78uMhzUuCd/BaSSBF4P8CldHlUJRYmY0R2IJYhjQe/rvMxPLig9KDbFvl3Z0WpRsYZYMv861Lg/4gpxr51QRWNxFfTAaZEYiorKAdc3NAnJ+Wg0LpKEHOsBlAB6wBLKgGkNh8Mvv/RSX28fy0pCKA+1tbW69CHjR/nmqYLWA2Ov19gh4TTpvtKREj0oevl02oWYRIyOjbgXuxJVpDUzEz0Q1oAUUjh6kMq4a9MDICkJvB4kuw7AxL1KIRlLLBYbCmBTPFNaD2raAxUha6p5bSK8Xo+kHgBIwqVOt/xrbWLxGDUF9NzinOMvBABsC5UOxaz4zGwkFwIf6YLFbLGkM39CPQCQhDkDo3Sh01zqAelDVrzkAw+1y+5h99bXt3i9aTogIY2goaGBjRfj/rLP1BCJRvAQsIR6PTDfe++9LDrOg4//rKiuxuzQPi/ussYVjz/+uz/+8fEtW15DQM1lyZJlr/fsNXZ76kNF1c7ycquLDyG3J9Km87zzFbZ4uZS9OB01nY6yKom1fdRVLLVGU2pCoWCw1kaaPwyGCrtrZYqXnPAvt8J5oBERe4ba1a5gE08k0nZJwSLT6hsfyQZCeyH8FTowFPn4dfwVVjNSfYWCujwpgG9x1h9xWrunmdAVfItmUhDHFYBg4BfxVxgMsUTUFxVWBJoqaiGlw76xcHS0sdJSUrGEfWAwdJ6ZcNF27X4vEokKB3VAfWPmeO28FnfIS8OBoTOeiPRkNxHGoYArmHKIiM/nVXjDRxOxcDziMYeLXa76ilqXq6QnNlpZVlFZVknjLdVNiHhM4Z74aKDYGCqXtlmRhOl4pOhQuFgm7A049gedB0IoVnQiWrQ7QP7u8hchZyxqxoXAacdFQQR/aVtchpg4WCIF5PUJgppF3GgcdDnGnDYIw4yZi2e2KpLVDIGl1jAvLBxhlXSn07lg0UKE6poaZ5ETHoDPKzHKEZKDv5CNgf4BGPEjh4/sfm93b0/v8NBQIBDAbzuL0r+7IrkPeXR0tMhZBJlh6XSkuR6aEc4uSTXTZEqTiIcTgR7JwEqgTNJHLMSzVnufmqDWCXMv6l6mmTD6yMRfZFKjT2Ysk6dUAmSKLNWf3/vrg399DOHPu1WPL+r2DvODixByP74oYjOOlpNQ3Fjd1jYXIV5bVDuzmY/TCD5FGU+pOoOlHJxS0qXPdf9ACXAhINu8BmsLUBfNjDpsR+pyt3KRBjHgBnpOqr1hI80tzWvOW7Phqis/+alb8Rdx5Li4ZaSpGCTT09Nz8MDBN7e+8dSfn/r1L371wnPPv/PW28ePHYdIsBIC8IvKV8JIRbb0IM/Yq4zOBj6wTH0JDYkGL/GBFYBcJ31EA77LSkwzTipJgFdBmow4SSji3osJYJUQvGHS+iQMAMWI35At2/g+hUoCauowjLEEcQHptdAc6PUtfKwW1QOKlAz0rKuvg8dw6WXrr7/xho/dfNMVGz64eMnitLV4GXlIqJz8nIpstRft2fPeyAjrKigvr1ixYhVpL5Lyo5W7z8pZ3by+snqVqWQeC5WraDgdM50ab7jPsL2o3GRYbpNuwNkaZK2ilzqkC+wNm0bi6m6yc7i9iAd6QEpObjiimUhCALBJBHriSI2ViwgxxxOmUBRiYDETs4UCF8xasmzG3Lm1LQvqaxc0lqlqL7LZrZdcsG5OWQMN7pBH6fgindqLcE6NOGwT0TdPLNgTcveERsKG2FDEy8cR6Q25vbFQwmEl10ArsThuMXJGZS4WvRb4EeTj9E6ETm/84HAcf9OFWI8/1lBMLk3CsKp63qLK1lmTh2Lj4gqbUkXtRUJWVLdlu73IbFY9L4z0ISteoQhAb5xOZ3l5+YzmGXPnzV25elVDY0NlVZXFYoauhMNymxI2Lh3Yv9/pdFRUikczFkp70TlPmSnZHE2TKam8hBAMEDdFGQEFAinWvg7GSGF8CrWAIQUXzFq6cck6hPNnTSiBQirtJVe2rORDhV1x7aHU7ixyGs3G0ZgPf/tCbvwNGSI0aahW/BJjsynhsidK7N1m33vhTgSPI34sPsjHaQSfogxZBiT74PTi0ogaf8zBaIOlYlZxQ9pQPBqnX2kqrrpx9iWXNSwXhVRjNHKPyWTSNqCIJRQguShFfUMDfAV4DPAbeNdBvm8ZNUX87vZt2zvPdLIsrUzrgUYk+6tBX3haJzJCUhIQhyTwgdr6giVR7/r0pz+LsPzay/C37oPL8fdDH7thzaZLEblyQdPaswNzh8fkXkZcwOD8Q26FAc6EcuhXjAbtzQ85wGg0aliUIhKJKF+hSMmiFK4SF3ygCy668MM3fPj2O+/YdM0mOBDIEQ52ol4dZdeOnSymlXNTD8rt0gPvckBwSj7jhQUvCbEEkQR7BmOy87Vexbd2PYzwevce/D3p6cXf9958vGzLs/t/913r6eNNHv+KPvfV7V3lQRXVycypP+xvec+bHCrOhliJaUiDpEYxSNuiy6NtUQq4DitXrYTH8MlP3QrXAWrBNbxN6EHaUa1pOTf14GSKceJH+k+y2DSFDZUEM9d7aTMTVdBGgaxXsXhwFA4BIjaLqaG8CAFx+Afrz/Tl0kuwBeJ1dXX19Q3CUFlZRd+ykMz7s1dew6IUZHSy4pXjoDeZL0oBMQBC54AiM/dNCdnSgxUrVq1ffwUNiLNcbo5GMBQUBtHALF146uDr337158mhR78hg6aSuebGq5ODqW4tKwGXMOlTGgz2XK+kPxWBJETGJcEhWC5pygGLT8WgymW/+YK2q5c300A/glRwpXKEMcXQRhG02kkWGmEZOpOIeuKjB8TjsLnASuQJi8WSdlaECDKgSM1iQRr0JhkoQTYsZ071IFHvGq4z9lZEhCE0T93gIuOQP20wjAYNo6HkYBzTzy+2lgiHtE4Ega0Xf8QHk2pv9P1J5pJw9+W3PHjzPQh3XX4zy1JMW1nDv33gDj4gyT5QSXkoTJ2ADYub4B/QTLgI8+rJWlg13Gzb/NLqqv/XCz5730WfQ7iiaXU8QSZ5BLg1CrnBdFkg6o0PSi86yQrkAzKgyKx6QJE6MbBY1eqNJKr6KpSTlfUqbmm7LHk9u8faX2eJzHC8eLKiQmP92u0eCn5oFo1jOw31TTSuEPfI0OjSMrpeBVm4VOrFsMKX2U6vV0FJ9RWFUCWAJEAYqEKkIvl9mflZr6LDbTyounkqc+LXzmexFLS8563n3kkpBC673e64+poP0+QrZ3e92rmLykAwRoQhmrReiAhr+8iMMWeq9TmE9PX3DK8n6/vOthk/Wy5dR/7uyIQEidarEPLp+Vfqu16FtkUp+JXjlAC9UTtmSRIy+Tke/8uzzyWvmXr9jdcXc3PcKGrXq8iKfwDTD5soDHqJAYC64s7TFoTKHKp3Dg0PsIQCvD7vmDGUKE1/01OEC19PkwmF2XBkDEaNgUiqUF5WMbN5Vi4D2y1NBGPhjrEeGtxBD8wbdQ4cZhKBS0NHeZ3DaGvTh5QqFwPSh5yZGHg93t6enl07d777zruSYgA9E4qBBtI8W7MyXqx/YXkLqtLrK+oudcQRLqtpQ1JyFegck1hR76k0K5QEiMFQdCy+tkUXa3TSnZ+3eUxdNEvCg3997O7H70P46V8fZ1mKgTfwj3/7FR/EzkEkaghGpANq1IUE8WW5wNJJ9AaGf3nk+f8++CzCzgHyjpA499oJXhJwws9tSdCwKIWqt9zQRZBYQhkw/adPnd793u7XXnmVTkj+/eNP/OW5vyDnyKHDyWIAZs9pYzGtyLUXXVS7aGPzeTTzZ4ef1fYCg9vnXdVaUh93vxcffg9Jc+PVRmeDsFFFLRrWJeVJXlrSuKfX3htI26IXtCdEYuCMmlZUzE5eyPew+3SPgY36WulsrnCIm90C0dBb7mNqp5K+n9uLeNI2HCW3F/Esaij74Uc3qmov6ouNyqy8a/QEk+1+cSzWGAqPdvsiAUdZae7W2AGnO0+mai/i2y1/+Yv/T7K9qCcy0jfXGYmKB8mYuP4DWIhwjJx8nHDJhqOp3l6EanvyvDB5YrGYqsWC7Da7jN7gEgwPgWGvxzM8NOyBI+CRHjkqo0B19XWXXrZepDp6rndN6hTjTeQamrwpBa4H2glFjX4p22Y1J1xMJMjdLEWi3EmqXmqY1gMKlQSyiIOUJDjiMfMI0QNoBl31+oJZSyqLSbdtfalh85pmVXoQtsbWfPgKljYYdvQfGw4KllJI0oPWQHC5x2uNJw4PR7tjJbweLFw4f8GCBTQOBgcH33xzG0uo5OKL11VXV7OEwYDtYGs0nrkeIJ5KEnCguKCpJGFK64GGNv14PK52UQqh3sD0ezze4WFi/WH3e3qUDqlKFoOKygoIQF19fUVFRXOLRN1FTz24afn5Ny2/gGZ+86U/H+zronFVSOrB4ZEzmnsUsqEH/MvO+P3ETmJXg7HwC507dg+d4EpNJpEwekKTzB4wGsnKAbB/NAXBSH7zr92SKFLdbTWtBzxUEighbiEdHkcsZuDehwPBoDuQvf5kkR7UhCOXDo/QeKffeMw34R+cf/5555+/hsZBV1f3k08+zRIquf76zU1NjSxhMGA72BqNy+gB3+ob23pCXg9AWkmgc8WFaNEDV9XfzZkYmS3k24deZjGc5Czrgcmk+uX4MJiqug0sZsvJjpNer7e3u0em4p+Wmrpam81aUVlps5K/Llexkq4CPfuT7XZzaamFBotFXX2W58lDrz+06+mHjx1+pCeK8JsDf0PyqcO6dS/rgmg0FI/DbEs51Zkz/Ylim8Fp5QPpbR4XAwC7nyhxTCpQbNMgBtMIEboFECFoDB9guWC24BmIZDoHwDPAX5vFdP3qVjqQtHCAZ08DSyfBXvTNhXkVM8ymSY0nEFfahYBbGyffZiaSLwy4CspBeWyh0p5iuHaWViOWQtuiFPAMVPQhm0xvbdv+5tY3du96D36AEjFAfb+hoYGubQfB23TNpk9+6tZbP33bhqs2XHrZ+mXLly1YtLCuvi7DfuNUqGvF1sBIwHPK3X3KM3Y6mEA4NTqIZDB0TsyPNxphABIOKx+IQRJhMU0qYDvXB2rkBF4SyFo60YkAsyVSgndO7n/hwDaEd08eYFmKGQ55Xj6zmw/ukId9kIQ1kSiPkGrsRW21VeOthVMIogfjK8rBm7daLObJPWo4qzjnvCTARRCGyc1maaDlK4qkh4z3eljzV7bRtigFEYOkBpVUkAGsVpuMBrhKXLzpv2LDB2H6b7/zDlj/jddsghKsXLUSH9U3NJjMJuWTnzMk63qwumbepuYLNlU2bnTEEDbVLUByYXUr+3iaaTRBJUHkHzi5d+YIeefkAaoHiLAsxbiD3pfOvMcHYeeBCCoGwAXJPyewWqymyV1ctOcAkuDg3ocjDKrGRqB8ceqTFMxgURBVaJgkTAYUKZ4SzA9gXbl6JVlbgjP9i5cshumH3afr033s5pt40z+zdSZMP/2uELWTnzMk63qwrGXBitZFyxrrl1bbEJY3z0LywpnL2MeFQY9n8KFdT2/p2Lm1u+uNkTjC1oFRJBGmlzwqWGCePJPfhxNLENtk5XoycsmIlbl93qAO7yTJPb2B4YeOvUTD7kHWW4a6bbIkiE44DfDS3O6hvv6etAH1a/qVYCSfLQTaFqUALKEAXm9g5enK1TD9F1x0IUw/chS+Gxm+SC7FAMidlP6B0MGDHhp8Pu0Oi93usNutdquJBEL6fqfcU19Chm30BoOnAnGE077QSXcXwkgwZSvBNIVGnHPlzcaJdrsbVl1+9+W3INyw8nKWpZhGV+UXl27iQ2Nxymc4YjQO2Ehl8K32/iFvQbeFhkLBcBLBWJjvYxC+jiZZEiSJtJWPXN44vL4+bfBuaKFf2XZqz692PIlKGK2H8eGF9rdogeyhYVEKuAWqRpcS70qPRSlwabKxKIUMcjsdCsVHxyI0xITDONQguSpkIJYjr1AhDSXVG+etWz97zU2z225rsJDQWvuZ1ZsRLmxR7cpUmovrLaXCgBz22TTZBBVVOA2kKWm89jKjvG5ObTNCU0Uty1KM02xvK2vgg9Mi19x8yEUucTgaf3LXqQNnJ83USSTi2ajlaXg/oqfU2BsY6fEPC8NQ1OtzpTT6CiVBLQmz8ZS7i/Qsurtf79jBh15vdl8lq2GSMCrpqk419EY4ulQzuRcDIKcHR/pP8rrdo7Wf5/G9L3771Z9/Z9c73zsZQbh321NIIpN9fM6xyN5wY8XKm2esFQbkXOCc7jI5l4F/sLOsJMI5JlAFmgms3OjAzrNdXV3dNPAzBjSA7/Lb6e7ubWpStwDXSJWxv0EiyOgByIYkJKzmuC3JaBqNCWcWO2C0LUqhauW4zBeloKia/KwjcvMPyMtLA0wYybhJlVNqKWSQfjSprcliJuP0NZGN+QezSurpi/pE8w8Qeb1n7+vde0ghZXyi7LwL15wnGg0WDAZ3vPPuQyNvs7R6zpn5B95wFus8eZ+fbE0kWgNBfn4yrM9ll68fcY+8++4OVkI/RBuXmX/Ak2qCpJLnkayhpnhojRIsZoslYTSOGwdESc/P5BF6+s4/kJ8kLAnEQNWLDex2HUaXxVROfpahINazm4R5/ALg4eGXnvaEJy1PnW8CUd3afG1Gc/LQYIejELtMcgyMCcxJUdaW1C8EIkbj8SLnwPiaAStXrvD5fNkQAwBT9fpft9TU1rTOUux62i0ww8khoWAGAbwEm9WaYfj84msRNs9a11Jad+fCjbcv2riiaSHCZ5Zdc/vSq+tdGtctVgKq7WrFIJo0NU8etSsUSaK2r0Jf5PwDPMFG1Pfi5KWFZOy8YlZWzVlZxVZWQv2aToSB3XfuGnA42DRIHq/PE96oYhkmXfwDY+coGazOE4sbw+TCJ1qSVvl2cvMGFIBtGjvH6i2lZeUS05FGR0Z7o2OJ5tJEs5bJSueAfwDPAM+j00L+0ttKd5L9g6aK2iIrEePWKvvfb1ityj8YNQYaNkysAdftGxJ2hkn6BxTjmbHyURP8g8suW3/w4MH+fhXL6Kpl8ZLF+HvwwEF5/wAecL2zsjdAOjYmvXPG4jJaS/B/IBbWtkCZKujKGac8vTAL1CNHBH/pujjJi+Lo5R+Y1S9KobaSju1n3m0Aa6xvt4Gu/oHRSObTlthViQGAGLSW1POB5ZJqshMPiSio7evXBWK43daJMGavCxbZeqSbGpQSiNaZy+w2Z9AfTg7Ix6eTROh9A6ocsP50SX0oAZKIJ0/dywY3rrzirstvRrhhlerxRU3FVQrHFxU+MLgbm8+DCUa4zRXlw6cbZ9PMLy689lxdod1k0tSHrEYMYMT06UNWM/k5G2S/vahQQWVQFERDxP55/e3f+eAXvrPuswvL2SC5abQBMYAMANJYxDkHqFgXWyeWIZomZ8i8kLIi1dIsUxkNi1LQSjpLKAB2w2LRoVKravJzlpB7ImEHb593FQ2q6g6x7r9E239JA+2enSokKor44Bhfy7oQ3tYw1cFtznsGkAQyJJRbHC15jIm+dI8OtA+cRegeUd1oE4iF2jN+n75VyhjF4/Hg5LeIKwmSk2MVDphJuQyXAFFbjY7UH/a3vOdF+OUv/j+EVx//U2zrCRpvf+5vCDSOTJSpOKtbZ562RSnUDijS8BPJkAFFWXgfslrk9AB2kG/zKZy6g7ZniQZVZ5x/oWtijLwhJL/kZfCZvlBJiMWJJJi5ZXBCMdLrAFXIBqgYWi2WZ/Zt/fkbf0B4eu9W9oFiur3DP9v/PB+6faqHxnd1dQmXI+UZGh5wOG1VVRWKQnVFZVW5zW5xj0jsALY/0J/+3Zz5bQuyBeL19Q1KQkVFBQqzr2UMxFL1gCKVb7nRMIA1GW7us4qO6+whpwdlpZbmZicNdnuh+Pah2aWiN/IrD/gu24oC4FmzEE2/KuE0SoAkBKKksaiIW7M6zE0fo0vi6NubwDUZW9TaAt3p6upundUqMhmolPgD/v/fP/zjN77xTUXhX8jfz372s6jQsE2MU1tbg79Z7a/OMUajbnZGw6IU0VhUlV3WoDfJ4H7I44AiEXLnq7TU2jzDSYMqPTA3Xm1p+yz+IphK5rJcnUjMq8oksK0oYGINXss52K6aR/jGIigBIr4ImdlC2pHY55liIQsSsHaozcvXf+GSjyJsXn4pzVGO8vUqUuHz+Qb6B5pmTJo1BrM+c+bMmhpiyhWCeuictrk2my08+TUsra2tkByWkOXJI1vY3NLOI3SFrqP+OFlv2DNGJwkfGdBhna76osrLGldcVLtoVkl9fj0Ss0n1ohRQAlXTyK16LEpBOq7VzzPPHrqpcTLUmBq40WxTEapnCMbSeSxrGp2AJMA5oP0HtLcZ1azMBx3RNiLhU9pYVtNWMwOhsVyF/aWoWq8iFSdPnZrVOml+QCDgu+QS1eKEQ1uz5rxgcJKLAKU5dfIUS8iy5+xhuiDEljNHtrpjCL/viz3SE3342GG6iNBjeiwZsGnGefxAphta17HcnEMmCatsxoFdViUGZEkKPQYUqeqryAFZ0YOTXI2DhpwtaK47wfFJatNLnGYDutYQ7T+AJPi4im8mkgCfwGZR/Vb0bNN1tqumtqa4eGIBK3/Av0rxeHAhixYuhJawBOk5aIL/MTLCXsqWBms641Vg500z2tr0VQ301G1Rikh+FqWQISt6ALeUVjoQhH6o1+fpk1oCl32cW0S7gSDakx9t+fW3X/05Qq93qkpagcMvqY9Ae5vpACS1wJLZrFbJ9oGn922h/cnPqO9P7vINZdifDPDMowrP9ypDDCorK0tLSzUMJiH+gaALoXXWTIXOAairqW+tbW6tIWGmw8iH1pLS1orG1sqmeq1zPIUcP/D27m1/Qdj/7is9ncdZbm7R0KZPpoApHuhJxizpMQ9Z7eTn3CCnB2Njkc6zARpCoUx1LFFVFN7Y5r9ypihEr9a5g0EJ8bXNot1AyMuevM+BJMS4l+MDPJHBmOpeBJPJZLfZUWVj6cl0j7Dxpl3qx5sGo+HMx5uCrq7uufPYrRUKBVasWAnrEwqH4sQcqGgrKCoqmjlzJhQFcVg9+AcKOw/ApubzP7Psms8sJ4Gt4MuFT81bSNbxXXXdF5ZuzrzF3zs6NDLYgzDYc7r3zKRReZLrbEvCvqAJDW36qgYUAbViMDw09NorryLsfm93b08PPUDSV5FuuYG8IHfuRseinZ0BGlTpQcIxvkyK1Zyw52H6sT6YuZNjNCbS+trT5Amr2WLTw3PPKl1dXTAi5eXk9fqw5uvWkYZ1ThJotZQP6Vm0cBEUBZGmGRCDLp9vovlIITmbjzZinjgifp1tmgzFIsIFtz0Rti7AUGhMfvFteTS06ZNhnqoGFKlfBAkycPrUaYTdu957/rnnf/fwb3//2BOvvvLKvr37+nr7MtQ/3ZHTA77pPxgNuQNqXgsDGSixk+CyT912yUSpg0xMK3cyYZimkDAZjXarLe3z/4VLPvqTG/8B4QuXfoRlKaatrOHfPnAHH5BkH6in62xX66zWcCQMYWhuZmumCiSBkl4V1qxZQ/2DefPmKncOQG7mo9W3zJu1YBUN5dUTp4tfZ3sNWfz3wtnLF/NLbSOUz2+m+bHWMiS16YGGNn21Az31WpRizDPWeaZz3569r7z0MrThqT89ufX1LQUiD3KW7sjASdqA/qMtv87xa8JuWXL5P627BYEmaXxdyxLE8TftRy1l5OUnwrjkBpGJOArQpORGpilAzCazzVpwXccyHDt2vKmpMRDwr1y5kmVxwCRNlgRAVUFaGBYuXARFsdvtxcXF0BiWq4DcjP5saJ7bOn8VDeVVOnRIKAR3gtpmHJxzVQM9TVoXpbj40ksWL1nMvyAzuW3K6/UWjjxk/f0H2oA5nl9NqlG3P30f/v568z34+/TRbU8f2bZ5wbrN84nHLfPRfdsePzJ4hn5E45IbPDrY+eNtjy2obrln3c1ISm4EEYUYe73GDrfy9U1tRssVxfNQniZ1pzsy8uLIwVBC52ZKulgpXd+00VS/rqTNbsxKkyD2fJun/Whw8oKX8m3E4ZjRPakJZfPy9Y1lZKRpqSO4us2man1Ts9N83Sc+ytIGw1Md7wi7lJWsb8rSHFdfs+mVV16+8qqrRJIAcDiOlOvmizXv3//j31zFJTXVNaJltOXXN6ULi4JEoCfW/RcaB6bKVaYKNtjpW7sephHN3D7vKn79SuGLQ4x+7t3WXDcG/g6FPO/0H+Y+Icwta5pbSqZovN1/eDjkIYtv29gdpWR9U9rBq6EPWcU8ZDijNh1ebNDZ2dnT0+MeHlZu610uV0VlRUVlZV1dHSJqZU/t+qay611H40ZviIz5MJvI6zJyWB2binpA+Uz5hZLL8L659Q3R+3AW2Rs2Na+aN3++LothiYhGo8eOHn3p9Hs7fEqHoChEqAefLL902fLlkvqXOVDQHXt2/XpgG0tzdtNqlp11nKQHPAvqSr97w4Zsvw+HIqkHqCQmDPEbb/z/t3cmwHFc553HAHMAM4ObAHEQBImDFEEKhwhKFGWJES1alxNdkbSuskvmrhJvXGWrdq1yYsdOKd7ISlLa2pXksh3HiSqO1xFFKVrFFiFKsSyKpkhFPECagEjiIC5icGMGmAHmnv33vIdGT1/T3dMzwGj7V6/Ift2Nnuu97/9973yE5hPJyyMRD80KWL3Q9XZXQUHBpYs9168nxAfyetDhrC+1MCFCLLwYW+zbaM3Jj3fimwqbcwuZ6TX+cOAXIx8wt6ZAdY4TbiM5duf453P4E6rVokQP4B+obcYJhoLKx3dp0xshYWa62+pn8Xm9UIW5+fnJiYn5uXl6Nhlq5UHX9a7NubGSAqYNvSg/e7sB1i02Ux5+3XSIAcBj8XCaSSdpEgOAJ3MjD3O86zj1arlW9Pb2tLa2SpmhSCTCDIGPMd6XwEMDOEVSzp49e6BbPDFISvdownw0MhlN9/loE4uz7MSjzLQwo5yrFQO1K8fpsigFfl/efDeH09nQ1Ni5p/P+3//8F5/40sG7P9fa3raxaqO8iZdqXFKuKPLkPfPMM/RwhRdf+aF9Y0Vevg7xkQaqzEXN1ooqS1Foye8Bbk+1uajaUkSOLcFYlbnYEorJX3K7PcUxG7lEjsUf6HGHfH6mhSfHRi7xHpIfNXui/kiOitKDh5uWQ1arLeAPsAkqPbkw1xtIaPrAnQhNiuPDTtIBPsIn08PjIf58pQ1m586CmlprCTctRv3BeMvS9vyqBtsG7qUNFudkaIH8LYBbSdaZwL+t+Vvqt4jsP6oX+N7O+IZRG60WS16ugmofiTGNnBz21Lfsqm1qrKjbVlmxvaaosJTpIiKMjqwGf2fPnwuFwlxthjdntVnuuOW2puJqkuYDiwn74cBvldjTx+QJ5AdM3GgDTE9P1m+uLy0tldosD5E64Fo3USs0Nzf/4YcnXa4JnifhWXDHtm+gGQGmSFTq3VLwYiq3ORFiQsC0shFSzGpOvYWZ+TW5OytxaN/Q2NDQoLYPmbHLagZ6atAbIfhZk/ZVwHuDGDQ2Ne68cVfd5s0VFRusNkYY/MtyMVYwGFzwLCDO6Lt61efz1W3mh7MwAvYCe3W10r4c2fYiBTQ5FjqKZ/FvtW1128vzC+UTfvt5T/lEgL8bGotpctXEsHymaldTcQ2Uk1fWecBApLjBNxwE2cpBQUy3FAp0eXvnIkoH9llN5lsK6p25CWrqjQbO+8fwL83H6cjf9MANt22uX7WnoWDIu+hlyys84uLSYqm2cnwEz7yHe7Oz0GmxrlYPGNPXez4QthftcWz5bG1bCcevR3k6PPHReJBRjgdK2zrqtnNt1vDQ8I+mVidzkfYiX4jZwOCLJft5jWN4/8vLq9sK4S0VFEiWAdyJ+2kmJwd34n6aiXPi+Ac/mTmhos4L2ov+5I5HGys24cCS56ku96hqL3I67f/1K1+h+ZycH/7u6IBndbCmqvYi/Fij14f/6n88C7sgrLRcrIJBU9ySDnPW09N76vSpC90XeO1RSfZPjsVMgXhRwXtOLPpOc6i1aG5bxVJH2aqP6QrYUXm7PeWoxfSUEmBMIMnhSAylRI9R2vLtRQc/9zmaUQZ+BVWzX/FDqNUbUQKBgOZFKWDx4ftPgnizknyvAyKM1rZWmomja/+BNFW25UdrBm8vn6ziyICQfl/RkfGGrimmQvIQ6kGVveyeus5t27dDJ+kpCRiH0WqVmoKkhGgsim9W+Nl5kFb44anxIwvn6Sn94OkBxGB6apoXyVZsrJDaoRuFbHoyYY4VlKOisoKVBBk9eGTnHVwdQrz5s6HjrB7c07mf2woEoyzUA28wp8CS80Rpgh7Mz87zRsTb8m14SzQjAJ8XwRPNxHE4HKXlpTQj1umShPWqB16fd0NF2Te+8fTQtaHcvNwtiSsa8RBKAiEUCl6+fAWqidj1Bz/4QXVVwjJ5SvbT53F72cQ9G8fwL82L4Q1bTsxVvTyyTca3Sx866gEqO1PlFdtlmBe1nbei4EV1XJQCksB0RzPyMOn18tddxht+7AurJRyo1QPVJhXexKHNV1/t/PWjNdfkxQAgbvhWc/erne/JlzlClb0UkUFSMQBqf1ohCkcrI0xpaGyEs1+Wt7r+TJqAJSViAIMOM4qEmi+zEgsu4QZyJ9EA/DnX3U4TRLDMucwCRFwQhxMxgCyRd4XEXbdHCK6yd5IwCE/Ac8hVXTgz3PPOJ6eRzgz10lOKmQssvjNynk3zAe0N4svLvo6ODnzGhsaGpME7fFjRSVIWi7Wpqam5uamlpUVVj6gQxPQv7jr17I4zSSsm6vu9laOo799qvoBjejYLQWSm3GJoWwRJiNrJz0kpLSttaGq89bZ9Dz7yEI7p2RVgFX0CkVCFOj2Aff/H9hOH6tTtDwPZQMlTUp7km4m4EEmgGU0oDAZJy4nVpEPwKw9pYYRlhyLCp0YqryiXaiwCuIQbyJ34EyIJqtpGtYEqFYoy65Ly2nXZl4aDT94Vkt1hJydFwVX2TjYs0PcjfDzc+07vKSQc0FOKmfd7j42cY9OcX3tNQ7TBDjOVCvi4SNkReACIaQsK7Dt2tJCJaRqAP/fCrlPtxeqWY2JUYbcix24dgsqlyi7D0dalD1lU1/VCNHzxepW2bIuiQg/urRyDT5E0JpAC5Ql/rqOLobY1UIgunUX6IiMA8mj+Qw1AD3JNTBJF2zvJ5PvPMDDcdXV1GyvpwHwlEHdHxoR17t5NFq5QC9wytf4cCyovHDvYAZrPEsIqV46Dm5i6GMA6qZr8vE5QWgnhF3yruTtFa47wQrkkQNK7urpee+110fTmm/82Pj4O+dXmTr5//Pg///znSIcPv8p7MlJv7+pkmU8fgVh4cmLy4oWLbOLFmAMDA9yr9CwHMlYl3Vsf68J6WK9iednXEp9XLLoCqxTykoD4ADEHzSgGYgC3jGa0AjuQRZKg1kTAQUzdR8RvR8L9rEORHsS7AS7QTGrgUd+/4QzNyIIvtL5+S0sizc1N7NW+vn5yoGHZ2NFRWitKSkroozk4ZFs50orm1nPlrclXlicOT3z0s6HjbHp95uxsiErCewtXfjF2knv1yNxZcolLMCI5mFBbu7a+3QbrChhusgGOxaJu9U1iVkRbvevr6yEwquLjr23tSV0MCJCEDpXNTWsC8wWqcdLx6+gyoEjqV9OReFeBSNOQsFNBFYpK57dTjgy4tBfPPlqzuimCFHa7vQVuVWJqa2sj60RywbevudOmpqaG9xJIqGz0cgYh/VeIbcdGxkiaGJ+QsZK4hBvYm0NB5gdS0gmG+GA86OYldlmLxYifd2lGbPto4cga1vmdnZ5l39WCR2RUMQuusnfOzdLFL3Xpx1s/wGSXlpaSEmWKL3ugShKYRlGJoROdnZ287dJkQHyvpNIp59kbzuhoE9KEqi5GZtSiRY8BRSE9BxQRyGTmy72fnPn4zLvH3vm/r7/x6r8cFo4vcjqdop0KykleNA9tvgqnnmZ04lDd1VJLwkBDAqpK0mBNaC9IZI3/TSb8qIrSOqSwsJBnKaANMqEuLgGaiYM/x0NoJs3APvEkIc+cx5s9AAIBkV+ZRXgVT1BlLpPyow+OPP36/0L60fHX6CnFDHhc3/jtP7CJO9hUOT7f4o4dLTSTgiTQDAc8dpmzXZo8X2tQ3Z0uD8Tga1t1fqa+SOmoKLAKuogBMxAghXFfhPm5eWYS8oWLx3/zPqz/z//pn994/Q0cQAwgCaIjTQm793TSI60kKZf41R+tVuZW2OpMRfuQcszJFzDAY+8qFw9dEa+RiQXw+qcFjI+P419yJxdIQkDTcCO3202ezEXpHoS6AntaVVNVUlpSVFxEEo5lxqLgEvdmJPw5HkIvp5+gIHTB+6nYWMF9S8Jgjguucm/G3+IJ9FqWEw6H/AE/k/z+zt0JtZT4oap6LBlJEDQN4bH0JeKJnhXj3soxhcNAaBV2rM7iluHeytEqm5Y+7QygdqAnvExVv4go8fFE6po9IVrE8Yf1J44/rP9bv/wVswpF9wWoAq7SW2VBWLDvtn3yUx2VkGQ+GkrSt5rpIoVSmCoeN9U9DT2geVjnubdjY8/n+C7RvBi/+V3B3wx0LEdXe9jaNzTe2bwHUTCO4Tn6lnxHj3aRS6LEm/p30EwcZgddZeHSK4dflYkla2pq9u27lWbis6K6vL0TYZ2DJOH8ZH2Rmo+mI39SyZ+frC+pz0erKakosDCauqXM9pUD7armo3lMy9UH22k+J2fcN5uwXoX0fLScKV+1x1pWVoZDu8P+3//bN8hpLjDxgWBAWPtkQOjM82H/7ic/np5mNimB/MwuLczcJK6mr3a+l0QP4MzVPY2KTLMgMBqbPhwbfZ5mJTgyvvWlaztpJg1om48mDJ3lMTMDDVV09Ysiqtk8yATjyclJHzx8r5dk6TWVkMXsNlZVWS2W0rIyqbXtdJ6f/I/tH8g1FpmLTY0vmMruodlEYv1PoUjRjIBTPZYjE01nPauTV7l6EPf3A0tLS7z5rlwqKkQmvjL76CqYxICfYX5efAWoYChUVFTEbZUy9ECK9a8HazI/GXx564G777mbZhhEfE9YEHm/XgjKNsp3/DDhgfNzc7889WuUUprngPqLWkwzojh25bb8a47ouuu+nmjvwzlhD80K8IYt933E/Zg6o0EP4KGr6kOGyqbehwx7BZMi2jwFo3/xwgVi/ekplWyML3IHo+90OBzx9U0Ver1Az/nJTnNIvufAtOV7UmIATE0vMLGnNDudtAtRCGI3/Eh2ux1GXwp6ayKw5mEmZENtkUtWq20jvmaxVFtTq/zrzmpyIzlNn4S2XRJJFa5P7WifNQKWgqRVcnNVr4jA9CjRFgn+06S4vVx2BpmMGADHTuaqNElNRIaBXVYVGWjYVU0UmQFFEIPRkVElYoDCAAvU2NTY2t62/87fO3j35774xJfI0qfItra1NjQ14oa0Wic5PWiWF4OifQkBphiQBHokRrVNrjcMuq0tiGOGG6XQpYNaqsveF+uffH/MlmupqqrmJWYNTr8iW7P+WcP1KiSaghLsOEq42uq94vEQEp4mSkeR3MDQ3C3fkxQDgmMn0xosTeYHnlZ6l3ePinQigmBIXR+yLoPZNIxvJKuZ3tCyA6Yf5p6Y/se+8DgObr1tH0x/3eY63EDvziByepBkRnv1H9MDGWx1prJ76bEA0SFG7BAgJItFy/xh0tYkbAdTjgbHLUsR7UMzpbBQ4HpjbderQBkkScCqHYckqLVKMECRSJTzZLmiXpW/TI+EOHblyEbwBHm3T/OCBRpwBMNt12ebpj02sXHYTIuN2HctBep46n3ITMQmO/+Jse/tbSTB3JPdDh585CEcd+7phOmPt0qsgekXRXvNl2kpSkC2wPEkQfjjoKpoGICYuiSglqbexZS9NBTV/O2tf0zSwbrd9KyBVji2mwtOMclihuOjrrAxDRTxJ5InyxR0GXst35y7iq2OO1qEh3wrgo5ADHa65hzxeTZCVA8o0mNRioiCyc9QHRh9kmD3U5wvlm7S7gmaHHLDD8RCBKZ9n01kXLCGXy4ajaLO0Iwm8ENqkCKDdU5/f98d+29H+rPvfJtNg9cG6eV0IqEKIGa1MrEwzSkAT1LrDougeO9uk7QeyFNlL9taWEVSfh4Tc+Nf9gyuSt3GAwEBxMAs0Q7MDPNUM9AzLw7NaAVfvqqO66wg7fYuFpCbIu+PJP9VIAbapopAulP8wWxWW+pORDayHAkMLrhIms/IxocZw+v15tvy6+u28hJ3cFFaoR69wJKr9T8YSUhtPUflxCIag4Cv7vj9Q9vuJqmjnFls5taNLewZXBXehhvISS7N0x4pMWA8v7VYlELzUNH1TAp64OuhB/J4PqQHYowHFO0rwDToa5IEhAhJAzoZIAafvr7lUlvhwbrdSLsrmI3URXH5Zn/c80uSzkxrXA7TQB6hKtjUSoKCVd+9YUnbF5tTtmdyeEFmLlGfT2mQ4Y9oNKDF/mCRP+FviwqoNWCcdDXNAJqdSx5So0uzHbnC1y27VV7M9RN6JEN4ITYvWeb8nMloSdEc4qG4pDjciB59WiiDHmzajdRZKakHBhmDqwpx/0OdJEST7fTXL2OvYeVlw3dCbEKupnsjcr720JVzbHK5mdkb7hkX96TwNtxATrJULCZ0iUMM9jbRxcOZfhTFdpk0PtNMCqjtq8gi5Eqeyy+3zCcz1yxZiBAb+q7MZJbBJaWeBQG/pQbrjKqSYt9yZnCNu3715q88bv7XNTM9c6zrGP4lWdyA29gsCzmPh9D8CrkmE740LspawOhf5eXmkq510UTvXeG9f3/v7BmRxVBPf3iaex7HOEMzHHD+xPHVOWLZjqoWbaIKSHEHVl1XJ2yTTBAs77/H+p+iR1IERmOuv6fHYsh7jdcun2OTf4kZoAVzzz0pvE2oB2VLCb2MLbVlljzGDqhdOU6XRSnwVav6ZbOLVOcnM9NVJHqMmfnu0qXtVI/lV1Nbfju/uqZ8+4bGA817OvfsoXkxUGXgDWnw92HaNHcGHHv77QzMTx7oY3YdaG1rbWxuJGcIl3svf9L7yd59e6trmO8KSgCjuaNlxw0tN5AbCFACGFnu+ZHh4Tcvnzzv5y9Vn59nrY7348Xcy+ZPpsvK+PUZ37Ar5J5sTr5f7qGSvdz5yW+89obdYb/7Xv6EVZzfULHh9v23kyzePz7FQ3/4EMmyQM/g7nHPpz4/meWGjUXfe/hgdcPj3d3nv/nNb26sTLKZgT/gn4x4ovsk+1FF5ydXBENblv32SGTr7ofxzcCD0RbUxmLRgJruYngD75w9ITo/+fayiWd3yK0wz6w3IzVPKLzAzE+WbixKOj/5zrHVxpzz5XnugtytC9EtC9SeenNjH9cwDjv3tu5S07yDuhpkfvK+a6tT6gqs5gMtzITzvqo7imVXx+KBmg8fh2ZSIJXGhswT8PtbWlpSWq9i/x/dveC0OGqZiOzQ5qtJdlMyF5s2PW2q/iOaJcCnGPqL2Jzc6kPQg78ZvGk+tNo6r0QPQNIAWQr4s1ablmjxWFcm9EDK0BM9gDGFSUWW3AbNgHKQGwjktt17dm+u30zOSOkBS743smkoIqoHy6Zwza03kuzQ4sS1RfE5rjw9QHwAwyQ09Ar1gHcbyC49aFv0Nvtoy4bz1sfJNxNv/9EiCSjn8qvDcpHRA3D0lmNO2bWpmbmldU/zhoYz/tzQX8jE96Brqu65vjaaEeMhP1NoCSesnpnc0I6w/YYwbXiYiQZO2JnRCtzbfps7P21dccCXQ2Xe5Zuvr0bDlYX5B1pqcbBkFReDeV/g7NDqbLXRIsdYkaJOyk0LvrqF1cLTUFHUUCkXWg1OLQxOr9qEnoqSBU3mRYrF0euNlbXfefLPaF4rhYWFTid/4WEpRASztrImtLJqUNdksnFmYU9s6LvRj7fHrhyKjT2PAhS9eFf03B55MQBnPRVcMVAOM8Vc06xCBHqwdDSzXhGOGPEtJRg4siMx6j/J8rDb9dnJp8TqvLO6jaQthUo3ehT9XYRvldwGSSDZTwc1gQARg8J8y65Nq2PMg3Tyqmr3BeVcl8ZucMS1lR5JEFv4MNrzMGou48ahFvc/xVRhBPeyYgDenmJcdRk6brufTYXFjOdRtXkbe6Z5117hbc5iOgiVocASLcwvtOWxqcRuqS62ITUWLIumipyFPN8Mm5bCHleuT0lyRxP+sDxngfdkXioMz3Pvn4st8h6YYhqaHd3evL06ZZSLARDRg7037gmubGMyESg4Mp6kMDFAFea6YqPPM53Mssuasvz7rMYRzSAvN0+jJMShmXWGlKFf8jHzichV5kDC4mds6GFSeIaeDP/grjclugi2lMJlC+1x17LcaXto95a9jZXkJEAgy7RwMuEsSSrIEyxoqg1UYZlRRqv4LqH+MrV4+rCSfuZuT/l52c6D5MS7Afgkrtnuzk/4Bma9SVYAdHk0zpdW/ULuNE7MjoYjcMp3bE1oKsgAIr/HwVsORPyBUNwMgZdHtykqTGpAAZUKDkyc9SpkErOKqaaWWaZyrssWQHnXnndVaD3JGW0yKWRiee7lq8dIOj/D7EuqBKlFBkVZWkqoTkQ2ikuSb56xDnFEIvZ4H+NN9Rusgn1EiSSsNHCqEwZIQuqD5VF/UYtpRifwzO/3rS4GLkXX1ZPvD54hybXIOArd45fZM6fG6O7cb/S+x54kt3HhWupgONo3Iek64OrwTMKyIlN2pY0QS5aE8RF4jtcv2cgGMZj1JrTmTdv1nL8SmJ0rchTCFNN8phDRA4gSku867eXHD//nl1PddodLv69Il9Kpef5wIBCIV06mh0lZyhwi8UGi3QQwmsR6ClFrTxEtBQJ+WCse/kjwWrzbAMkdVLduD+8NCz8RiXVI3MNDrxaSDGOPUA9DKAYEVhI43V5KVSHu+WhxfbjAAzsxp7TdTwmowhOB5CMOTo9c/M3gxyT547tHuP2L7JnLU3Qx9u7xK+xJchsXnqk9NTDFs8UspwemFjlGPJSXq9xM+yxmXojwbs91CAzNcMBJvBDNxLleKOfMaWBxZOzgLZ+lmQwiXnwP/cGXlienESWQLKLC5xT4AkogboVeAYdN04pUqJwwghp6pNONqKGH3eR5/STLu1MoG0nx55s8ztjEstu1NMdNs2HvfJkWFSRvjGfohY6/aCSU1e1F01b6A7k8kovHkXEQONCgCprHKXF5rq9Nbi6CGrqm6hQ1IwNu9YwfMrvasrCHoidX6CtL2AUW5vitCyO8KAG+PMz31cSTfWXqPi/vhaA6eCFeuxCyb5wd4gkS7w9ThNjeQ3/wRZrPIOJ68MiBBxAiuK8O0DxTAjalLgmQga9fujVZoURxUJpMJo2jSKPMnrSBhGdJp4whauiBqNfPM6Ci7nZS3OWmqWqRFLJq+dwy0YmwIWs6cd9T8qnZbpKsYzyfaZe4NDYn05oBSWBXViCqsCIMRBXkhAGSoC0aZlFW+5KTdEwRl1ihLafAghQrzKe9BTZzzGGlJ3EQJ1aUT884bcJOBXjuvRUJfU6QhONXJn52su+tC6NIMNCvfDTIaylCcHC1VJ2ZHip2CnoRIAmjhz8aJC9EDrghCEAIomNjUTQcQXDwyIEHM995ACRL2Hef/NOgZ8F3fXWgIZEEza49CuJ/7r5DLw+FBZVEaGuUEIlEiL+23uAaelGvX6qZngxIXXN4hp6XBTKyodf4qMxzodARyjURO/XT41foWQEodbzFdpSHC6kvsEgkIZWGo5eu7VQuBgx5ubF8C1IOtyXNaqYnWU8u10TPWMTDoJ4NxTxLDfBtw1sXNuUTTm6qgCTQjGI+FPsrCAB5IZ4SANyMF6IZPVgYHHLkWb/z5J/SfGaR/L5u2bXnqS98FW8OwQs9FZcE2HT5GYlCUApfHt2GP1TS4KgBs/oV5AmometquJHQ0Mt4/UllIzmoojYzM5xDkGJw1tQj491zL9FmpcT37Ha76VF24svLO15WsqSgVQeSICx1SlTBxOzrp4Mk/PknnTDrah074s8pbSZKA+9v3iiUBFFgoz+uKdfmsyMWwQspFBJVNyvBOzIGe/u3Tz1b5NCzAUo5cp/k6//pqwhb3FcHuJIAmw4X4yllXgbKHAoQitHLI+ldKkfDCvKEQDCw3oYbCVvSeTohbFbS1lgEYnYrInphSvDmFEO8e1FxEjr+ot0M2nR9neA2m49WlEEVep1JJkBJrXlAVGFFGIgqJAgDJAFfUeqLLqBWPnb2QLxPOHlABiV4rq89HcG9KmB2391anbRLAJoBGz1UrGLQPQ884a3G2qRycr3QjvejUKKUsDA4vDg8BjHI/LAilrxnnnmGHopxcO+B61Pj58+cikUittLVJjwUo/dmarqm6vp9xd6IxRe2OM1hay5jWHEJ5QZq8Yuxpuf62//DXSm64pXJxw/xmDXQy2sBzasEfhMsu4ZeYtRMs9ksU8f6QXDaGxUf0qCZanPRDRs2c+fcQwkmJyfLysvYlh/XuAtnoAfctiB8zJHhkeKSYnZbJZhgnKmureZutOTxeK7MjOo+rZpLR/6m+i10fjXhcu9lWPYdLTtoPifn3BlmjRruGTAzPYP3zD2J948z7Tcl9FGNDA93S8+vFiESM0mMEdzgtN25o7GwdNfExMS7777rTOZ/wWT7YoFYnWTTlikYzomKFDaECNNWS3vp1ty8XLzWrART01Nzs7MzM0giTE8zaQUckcQwOzM7Nzc3NTVFHxTHH/C73DMopfRNKCAYzUOgD2HoXihHnUXpRz0ts9JCjkt9S8X/NlH/Pwda/8/1prVVAi4TzoLhEth6U344Yk305GCgr2woOldV7keMmxrRXNNQiXPaAUkwOcLhPI5VgSyNFjm6q0qvlBfjNno2NaLhiPtyP4kMHjnwAD27FoisVyHk9ffe/Kuf/rUvEizcvKlgoz6NZaZJvp0i61XsuflmmlcPPgsqhgZJgJbk2/KlJOHtrq4MrFcBUOVPHD+xecvm3Z10SzKyCgVvEQtyG3dpBxjTsx+f5d2WdL2K1OGtVwGEa1G88dobcGk//8DnaT4OuY1dhAMIFy8CWbd+EUuzyzZ4bTBjw2eDoWDFji2uhiyOrjRgiURLAkwXYCg3V0c/XYgjFLaHmCa+JYvZlzhNIXUgA4gMnLaCH3/7xVt2JVmtJ90oahaAZP3yf79+oO0299WBqY/P+65PsENR9SUC1zeF1hsYdG3bFeBFA8G0fCINCBt/eB2wwmZ6ze1FaQK2nh7FEXYgC9uFuM1faWLZOzp48fnxgcM0n076B/prq+ugOhlLkz2Z2OJtXQFXnYztSasYAGgAeSEdxSDkW4IMwJzCqD5x7xeO//07ay4GQFF8wDI2Nf7iv/zw3Y9+veBbzDWbzXHDZHE6cjUEaPP8kdq3bGk92La/rb0NNj2VTjPN6xThA4nKCeKDfx04ft2nIhhXws0bWx675V5ufLC0tHTs6DGu43/6w9OucRfXjybwnG7hYnYA8cGrH3X9x6TqfeSV87XWP+TFB7w3LAxlCMI3LFzMDiA+eOniazSjhFA0R2KmEos5ECtz22BAaV4CxAfXl6aWGiUakVFplkPwX2hWQNFguL4uo12vw6PXFtoULdxmsFYwq1B4mfiVLAi0qbL2kc8+8PCBBzdV1sSvrz3q9IDlk2uXT1/6eNG3uOBd7L12mZ5Vg2+O32u6vbr55pY9rW2tEAPNa1MTED5rGziE14Uq0MwK0INzrkvzfslx5dpoKN38e+2f4eoBgFnEv2zD+vDwMHx/UT3Av+xt00x7c0LzC4AevN/928H5EZpPA5/dehtPD4ihr66pJosU+ZZ8I0MjUnqA86SrXOo26MGvr52kGQVEwmE/Z4lKUcK+UGjCr0QP3AF3xY3ivVmoNcGl5VhEsu7MXHRlXg82fYbZkNJgPbP3RiYIqK2sRTSwfmSARaMepI5vZQlVlku/+93o2BhZxpk06JPz2ggEA6JDOJKSn5/Pmwv69tGu++6/v7o6iQVRy/lz52bnZkX1gMfd993NG59DVpammRWEelBeVq586XMN/MNPfyqqBzSzAq9jA5AOD5pZQVQP/suTT9KMAhAXJh232tNz6S+/95dJW/aj0ejOnTtfeOFFmk8E3oZrwiXTxvXlLz+ReT344FO0m5DBmrBmeiAE9nFgcJBd1p/ZrsCqvVkwlhMLBLSMJUVcAkngNlhlUg9EDb1wqwDSH0szKxy46wC3pX5N9EDU0Av1gLQj0cwKwk0d1OqBQrq7z9MjWaqqqquqxAdVw9WYnZ2VKV2PPf6ooQcGWYf2Zvp0E0bwHwmvrhqhMsGsQ040NDpBIJl9SGLxZ8QTvZARhB2twjNA9KTMvN+MITrBWOGHythonPb2DiVJSgwAIsjKykrcIAW9z8Agq1i/8QHBZrOlspIXPDi/P8k65qLgRQvy6WzqrqNHMxYfLIHEwUIwnUJDHwqFeGGE8LY1iQ+AMHDhtmKxCG/D++fpRJrigwxw3/33Wsy2VAJcVSwv++wO+6uHj9C8gYEm1rseMENIbakNNwprHG5kMVvw0jjIpB7oyFrpgY5krx709/e9/PLLXq+3r79vedmfm8LgCBlC4VBHewcOnE7noUOHmpqayXkDA22sdz0A8Qb9Ag0tPyzBYEDbcKN8W77ZbDb0QApDD5Ly1FNfH+gfMKe8p40oc+5Zo8/AQEfWb/8BS7xBX0ubD4tV64QGf8CvbZCSgYGBQdaRBXoAomq2KxBNMstRyANJoEdZSGBdLuhtYGCwPllf7UWAZsQoKioSThZTDj5pfFtz1Xjc7gcfeqi8PLWtwxMJBoNH33prdnaW5tOD1Wq97/779X3nLH19fR8cP04zaaN527Y77khjk1S6MdqLDLKIdaQHMJHy9nHCRbd0zjDOwsLmZj176rxe71tvvWWzWbdt337+7Dm/39+yc2f5Bn2sdjgcPnXyQxzctPsmfJ/DQ8N3HTxYr3cvxenTp69cvtza1up2ewYHBmo31TY0NtJrKYMHXh+7ji8Eb7u3p7e0tBSqRq9lG9CDa4NDlvQMpZ2enTT0wEBH1pEe/P+Dy+U6efLktu3bYOxqamq8i4sLi4uphD48ENDcsX//hydPQmY8Hnc6epUR3FRUVkLYxkZHd+3adfHiRYdT+4rzPAJ+f2NT0/DwsMNhh8xA3rK3Vxl6MD4+keJkeymMOWgG+mLowRqASOjwK6/g3527du3duxdWdXFxkV7TA6vVWl5e3tfXd/rUKbxKOgZHIT7ouXQJkdNdd92F14LC0Qs6gWfinX9w/DiejDef1fGBoQcG2YKhB2sDjB3+zcB8JYiNUz/PnUv6nswlM6+SPgw9MMgismN80acPKEEGxACkz5hmxkxntRgYGGQXhh4YGBgYGDAYemBgkEaqqqpI26DuBENBI3gy0BdDDwwM0kh7R8ei16NtuRR5PJ752z+TsF2EgUGKGP3JBgbp5aWXXjzy2hF9u5TDkfCNu2589tnvGyGCgY4YemBgkHYmGPQckgsZMFYzNdAdQw8MDAwMDBiM/gMDAwMDg5ycnJz/B8mpqv+KerYZAAAAAElFTkSuQmCC;rotation=-180;" vertex="1" parent="1">
          <mxGeometry x="120" y="60" width="287" height="188.19" as="geometry" />
        </mxCell>
      </root>
    </mxGraphModel>
  </diagram>
</mxfile>
